<?xml version="1.0" encoding="UTF-8" standalone="no"?>
<svg
   xmlns:dc="http://purl.org/dc/elements/1.1/"
   xmlns:cc="http://creativecommons.org/ns#"
   xmlns:rdf="http://www.w3.org/1999/02/22-rdf-syntax-ns#"
   xmlns:svg="http://www.w3.org/2000/svg"
   xmlns="http://www.w3.org/2000/svg"
   xmlns:sodipodi="http://sodipodi.sourceforge.net/DTD/sodipodi-0.dtd"
   xmlns:inkscape="http://www.inkscape.org/namespaces/inkscape"
   width="1000"
   height="1000"
   id="svg2"
   version="1.1"
   inkscape:version="0.91 r13725"
   sodipodi:docname="screenshot_transformedsmall.svg">
  <metadata
     id="metadata12">
    <rdf:RDF>
      <cc:Work
         rdf:about="">
        <dc:format>image/svg+xml</dc:format>
        <dc:type
           rdf:resource="http://purl.org/dc/dcmitype/StillImage" />
        <dc:title></dc:title>
      </cc:Work>
    </rdf:RDF>
  </metadata>
  <defs
     id="defs10" />
  <sodipodi:namedview
     pagecolor="#ffffff"
     bordercolor="#666666"
     borderopacity="1"
     objecttolerance="10"
     gridtolerance="10"
     guidetolerance="10"
     inkscape:pageopacity="0"
     inkscape:pageshadow="2"
     inkscape:window-width="1920"
     inkscape:window-height="1018"
     id="namedview8"
     showgrid="false"
     inkscape:zoom="2.8284271"
     inkscape:cx="660.88452"
     inkscape:cy="820.42326"
     inkscape:window-x="-8"
     inkscape:window-y="-8"
     inkscape:window-maximized="1"
     inkscape:current-layer="svg2" />
  <g
     transform="matrix(2.9119917,0,0,-2.9119917,722.94899,164.0878)"
     id="g4">
    <path
       d="M 46.004693,0 44.475269,-0.200792 42.986384,-0.393964 41.5371,-0.579721 40.126504,-0.758265 38.753698,-0.92979 37.417805,-1.09449 36.117964,-1.252551 34.853334,-1.404157 33.623091,-1.549486 32.426429,-1.688712 31.262556,-1.822007 30.1307,-1.949536 29.030104,-2.071463 27.960027,-2.187946 26.919743,-2.29914 l -1.0112,-0.106057 -0.982812,-0.101066 -0.955103,-0.096221 -0.92806,-0.091515 -0.901668,-0.086948 -0.875914,-0.082513 -0.850783,-0.078211 -0.826262,-0.074034 -0.80234,-0.069982 -0.779,-0.066052 -0.756233,-0.06224 L 16.516344,-3.272521 15.803981,-3.32748 15.112743,-3.378963 14.442109,-3.427078 13.791566,-3.471929 13.160612,-3.513618 12.548759,-3.552243 11.955527,-3.587901 11.380448,-3.620686 10.823064,-3.650689 10.282926,-3.677999 9.759598,-3.702704 9.252651,-3.724887 8.761667,-3.744632 8.286235,-3.762018 7.825956,-3.777124 7.380439,-3.790025 6.949302,-3.800796 l -0.417131,-0.00871 -0.40349,-0.00672 -0.390206,-0.00481 -0.377271,-0.00295 -0.364677,-0.00116 -0.352415,5.63e-4 -0.34048,0.00223 -0.328861,0.00383 -0.317554,0.00538 -0.30655,0.00687 -0.295842,0.00831 -0.285425,0.00969 -0.275289,0.011021 -0.26543,0.0123 -0.255841,0.013533 -0.246515,0.014716 -0.237446,0.015854 -0.228629,0.016947 -0.220057,0.017995 -0.211724,0.019003 -0.203625,0.019967 -0.195755,0.020893 -0.188106,0.021779 -0.180675,0.022627 -0.173457,0.023439 -0.166445,0.024215 -0.159636,0.024957 -0.153023,0.025664 -0.146604,0.026339 -0.140371,0.026983 -0.134323,0.027595 -0.128451,0.028178 -0.122755,0.028732 -0.117229,0.029257 -0.111868,0.029756 -0.106669,0.030228 -0.101628,0.030673 -0.096739,0.031095 -0.092002,0.031492 -0.087409,0.031866 -0.08296,0.032217 -0.078649,0.032545 -0.074473,0.032853 -0.070429,0.033139 -0.066513,0.033407 -0.062724,0.033653 -0.059054,0.033882 -0.055506,0.034092 -0.052071,0.034284 -0.048749,0.03446 -0.045538,0.034618 -0.042434,0.034761 -0.039433,0.034887 -0.036533,0.035 -0.033733,0.035096 -0.031028,0.03518 -0.028417,0.035249 -0.025897,0.035305 -0.023465,0.035349 -0.021119,0.035379 -0.018858,0.035398 -0.016677,0.035406 -0.014576,0.035401 -0.012553,0.035387 -0.010603,0.035361 -0.00873,0.035326 -0.00692,0.035281 -0.00519,0.035225 -0.00352,0.035162 -0.00191,0.035089 -3.72e-4,0.035008 0.00111,0.034917 0.00253,0.034821 0.00389,0.034715 0.00519,0.034602 0.00644,0.034482 0.00764,0.034356 0.00879,0.034222 0.00988,0.034082 0.010932,0.033935 0.011932,0.033784 0.012886,0.033626 0.013797,0.033462 0.014663,0.033294 0.01549,0.03312 0.016274,0.032941 0.01702,0.032757 0.017729,0.032569 0.018399,0.032376 0.019035,0.03218 0.019636,0.031979 0.020203,0.031774 0.020738,0.031565 0.021243,0.031354 0.021716,0.031138 0.022159,0.030919 0.022576,0.030697 0.022964,0.030472 0.023326,0.030244 0.023662,0.030014 0.023973,0.02978 0.024261,0.029545 0.024525,0.029307 0.024767,0.029066 0.024987,0.028824 0.025187,0.028579 0.025367,0.028333 0.025527,0.028084 0.025668,0.027834 0.025791,0.027583 0.025898,0.027329 0.025988,0.027074 0.026061,0.026819 0.026119,0.026561 0.026162,0.026302 0.026191,0.026043 0.026206,0.025783 0.026209,0.02552 0.026197,0.025258 0.026175,0.024995 0.02614,0.024731 0.026094,0.024466 0.026038,0.024201 0.025971,0.023935 0.025894,0.02367 0.025809,0.023402 0.025714,0.023136 0.02561,0.022868 0.025499,0.022601 0.025379,0.022333 0.025252,0.022066 0.025119,0.021799 0.024978,0.02153 0.02483,0.021264 0.024678,0.020995 0.024519,0.020729 0.024354,0.020461 0.024185,0.020195 0.02401,0.019929 0.023832,0.019662 0.023648,0.019397 0.023461,0.019131 0.02327,0.018867 0.023075,0.018603 0.022878,0.018339 0.022676,0.018077 0.022472,0.017814 0.022266,0.017552 0.022056,0.017292 0.021845,0.017031 0.021632,0.016772 0.021416,0.016514 0.021199,0.016257 0.020981,0.015999 0.020761,0.015744 0.02054,0.015489 0.020317,0.015236 0.020095,0.014983 0.01987,0.014731 0.019646,0.014481 0.019422,0.014231 0.019196,0.013983 0.01897,0.013736 0.018745,0.01349 0.018519,0.013246 0.018293,0.013002 0.018068,0.01276 0.017843,0.012519 0.017619,0.01228 0.017394,0.012042 0.017171,0.011805 0.016947,0.011569 0.016726,0.011336 0.016504,0.011104 0.016284,0.010872 0.016065,0.010643 0.015846,0.010415 0.015628,0.010188 0.015413,0.009963 0.015198,0.00974 0.014984,0.009519 0.014771,0.009298 0.014561,0.009079 0.014352,0.008862 0.014143,0.008647 0.013936,0.008434 0.013732,0.008221 0.013529,0.008011 0.013326,0.007802 0.013127,0.007596 0.012928,0.00739 0.012731,0.007187 0.012536,0.006985 0.012343,0.006785 0.012152,0.006587 0.011962,0.00639 0.011775,0.006196 0.011588,0.006003 0.011405,0.005812 0.011222,0.005623 0.011042,0.005436 0.010863,0.00525 0.010687,0.005067 0.010513,0.004884 0.01034,0.004705 0.010169,0.004527 0.010001,0.004351 0.009833,0.004176 0.009669,0.004004 0.009506,0.003833 0.009345,0.003664 0.009186,0.003498 0.009029,0.003333 0.008874,0.003171 0.008721,0.003009 0.00857,0.00285 0.00842,0.002692 0.008273,0.002538 0.008128,0.002384 0.007984,0.002233 0.007842,0.002083 0.007703,0.001935 0.007566,0.00179 0.007429,0.001646 0.007295,0.001505 0.007164,0.001364 0.007033,0.001226 0.006904,0.00109 0.006778,9.56e-4 0.006653,8.24e-4 0.006531,6.93e-4 0.006409,5.65e-4 0.006289,4.38e-4 0.006173,3.14e-4 0.006056,1.91e-4 0.005942,6.9e-5 0.00583,-4.9e-5 0.005719,-1.66e-4 0.005611,-2.82e-4 0.005503,-3.95e-4 0.005397,-5.06e-4 0.005293,-6.16e-4 0.005192,-7.24e-4 0.00509,-8.3e-4 0.004991,-9.34e-4 L -0.216423,0.699635 -0.211625,0.698498 -0.206921,0.697262 -0.20231,0.69593 -0.197791,0.694502 -0.193361,0.692981 -0.189011,0.691359 -0.184756,0.689657 -0.180587,0.687866 -0.176502,0.68599 -0.172499,0.684029 -0.168578,0.681984 -0.164736,0.679859 -0.160972,0.677655 -0.157286,0.675373 -0.153675,0.673015 -0.150138,0.670582 -0.146675,0.668077 -0.143283,0.665501 -0.139962,0.662855 -0.13671,0.660142 -0.133526,0.657362 -0.130409,0.654518 -0.127357,0.651611 -0.12437,0.648643 -0.121446,0.645615 -0.118584,0.642528 -0.115783,0.639385 -0.113041,0.636186 -0.110359,0.632934 -0.107734,0.62963 -0.105166,0.626275 -0.102653,0.62287 -0.100194,0.619418 -0.097789,0.61592 l 0.002353,-0.003544 0.002301,-0.003587 0.002251,-0.00363 0.002201,-0.00367 0.002153,-0.003709 0.002105,-0.003748 0.002059,-0.003784 0.002013,-0.00382 0.001968,-0.003854 0.001924,-0.003887 0.001881,-0.003919 0.001838,-0.003949 0.001797,-0.003978 0.001757,-0.004006 0.001717,-0.004032 0.001678,-0.004058 0.001639,-0.004083 0.001603,-0.004105 0.001565,-0.004128 0.00153,-0.004149 0.001494,-0.004168 0.00146,-0.004187 0.001426,-0.004205 0.001393,-0.004221 0.00136,-0.004237 0.001329,-0.004252 0.001298,-0.004265 0.001267,-0.004277 0.001238,-0.004289 0.001208,-0.0043 0.00118,-0.00431 0.001152,-0.004318 0.001124,-0.004326 0.001098,-0.004333 0.001071,-0.004339 0.001046,-0.004344 0.001021,-0.004349 9.96e-4,-0.004352 9.72e-4,-0.004355 9.49e-4,-0.004357 9.25e-4,-0.004358 9.03e-4,-0.004359 8.82e-4,-0.004358 8.59e-4,-0.004357 8.39e-4,-0.004356 8.17e-4,-0.004353 7.98e-4,-0.00435 7.78e-4,-0.004346 7.59e-4,-0.004342 7.4e-4,-0.004337 7.21e-4,-0.004331 7.04e-4,-0.004325 6.86e-4,-0.004318 6.69e-4,-0.004311 6.52e-4,-0.004303 6.35e-4,-0.004295 6.19e-4,-0.004286 6.04e-4,-0.004276 5.89e-4,-0.004266 5.73e-4,-0.004256 5.59e-4,-0.004245 5.44e-4,-0.004234 5.31e-4,-0.004222 5.17e-4,-0.00421 5.03e-4,-0.004198 4.91e-4,-0.004185 4.78e-4,-0.004172 4.65e-4,-0.004158 4.53e-4,-0.004144 4.42e-4,-0.00413 4.3e-4,-0.004115 4.18e-4,-0.004101 4.08e-4,-0.004086 3.97e-4,-0.00407 3.86e-4,-0.004055 3.76e-4,-0.004039 3.66e-4,-0.004023 3.56e-4,-0.004007 3.47e-4,-0.003991 3.38e-4,-0.003974 3.28e-4,-0.003958 3.2e-4,-0.00394 3.1e-4,-0.003924 3.03e-4,-0.003906 2.94e-4,-0.00389 2.86e-4,-0.003872 2.79e-4,-0.003855 2.7e-4,-0.003837 2.64e-4,-0.00382 2.56e-4,-0.003802 2.48e-4,-0.003785 2.42e-4,-0.003767 2.36e-4,-0.00375 2.28e-4,-0.003732 2.23e-4,-0.003715 2.16e-4,-0.003697 2.1e-4,-0.00368 2.04e-4,-0.003662 1.98e-4,-0.003645 1.92e-4,-0.003628 1.87e-4,-0.00361 1.82e-4,-0.003594 1.76e-4,-0.003576 1.72e-4,-0.00356 1.66e-4,-0.003543 1.62e-4,-0.003527 1.56e-4,-0.00351 1.52e-4,-0.003494 1.48e-4,-0.003478 1.43e-4,-0.003462 1.39e-4,-0.003446 1.35e-4,-0.003431 1.31e-4,-0.003416 1.27e-4,-0.003401 1.23e-4,-0.003386 1.19e-4,-0.003371 1.16e-4,-0.003357 1.12e-4,-0.003343 1.08e-4,-0.003329 1.06e-4,-0.003316 1.01e-4,-0.003302 9.9e-5,-0.00329 9.6e-5,-0.003277 9.2e-5,-0.003265 8.9e-5,-0.003253 8.7e-5,-0.003241 8.4e-5,-0.00323 8e-5,-0.003218 7.9e-5,-0.003208 7.5e-5,-0.003198 7.3e-5,-0.003188 7e-5,-0.003179 6.8e-5,-0.003169 6.6e-5,-0.003161 6.3e-5,-0.003152 6.1e-5,-0.003144 5.9e-5,-0.003136 5.6e-5,-0.00313 5.5e-5,-0.003122 5.2e-5,-0.003117 5e-5,-0.00311 4.8e-5,-0.003105 4.7e-5,-0.0031 4.4e-5,-0.003095 4.2e-5,-0.003091 4.1e-5,-0.003087 3.9e-5,-0.003084 3.7e-5,-0.003081 3.5e-5,-0.003079 3.3e-5,-0.003077 3.2e-5,-0.003076 3e-5,-0.003075 2.9e-5,-0.003074 2.7e-5,-0.003074 2.5e-5,-0.003075 2.4e-5,-0.003076 2.2e-5,-0.003078 2.1e-5,-0.003079 1.9e-5,-0.003082 1.8e-5,-0.003085 1.7e-5,-0.003089 1.4e-5,-0.003093 1.4e-5,-0.003097 1.2e-5,-0.003102 1e-5,-0.003108 10e-6,-0.003114 7e-6,-0.003121 7e-6,-0.003128 5e-6,-0.003135 3e-6,-0.003144 3e-6,-0.003152 0,-0.003162 0,-0.003172 -2e-6,-0.003181 -3e-6,-0.003193 -5e-6,-0.003204 -6e-6,-0.003215 -8e-6,-0.003229 -9e-6,-0.003241 -1e-5,-0.003254 -1.2e-5,-0.003269 -1.3e-5,-0.003283 -1.5e-5,-0.003298 -1.6e-5,-0.003314 -1.8e-5,-0.003329 -1.9e-5,-0.003347 -2e-5,-0.003363 -2.3e-5,-0.003381 -2.4e-5,-0.003399 -2.5e-5,-0.003418 -2.7e-5,-0.003437 -2.9e-5,-0.003457 -3e-5,-0.003477 -3.2e-5,-0.003498 -3.4e-5,-0.003518 -3.5e-5,-0.003541 -3.8e-5,-0.003562 -3.9e-5,-0.003586 -4.1e-5,-0.003608 -4.3e-5,-0.003632 -4.5e-5,-0.003656 -4.7e-5,-0.003681 -4.8e-5,-0.003706 -5.2e-5,-0.003731 -5.3e-5,-0.003757 -5.5e-5,-0.003784 -5.8e-5,-0.00381 -5.9e-5,-0.003838 -6.3e-5,-0.003866 -6.4e-5,-0.003894 -6.7e-5,-0.003922 -7e-5,-0.003951 -7.2e-5,-0.003981 -7.5e-5,-0.004011 -7.7e-5,-0.004041 -8.1e-5,-0.004071 -8.3e-5,-0.004103 -8.6e-5,-0.004134 -8.9e-5,-0.004166 -9.3e-5,-0.004197 -9.5e-5,-0.004231 -9.9e-5,-0.004263 -1.02e-4,-0.004296 -1.05e-4,-0.00433 -1.09e-4,-0.004364 -1.13e-4,-0.004398 -1.16e-4,-0.004432 -1.2e-4,-0.004467 -1.24e-4,-0.004502 -1.28e-4,-0.004538 -1.32e-4,-0.004572 -1.36e-4,-0.004609 -1.41e-4,-0.004645 -1.46e-4,-0.004681 -1.49e-4,-0.004718 -1.55e-4,-0.004754 -1.59e-4,-0.004791 -1.65e-4,-0.004828 -1.69e-4,-0.004866 -1.75e-4,-0.004903 -1.8e-4,-0.004941 -1.86e-4,-0.004978 -1.91e-4,-0.005017 -1.97e-4,-0.005054 -2.04e-4,-0.005092 -2.09e-4,-0.005131 -2.16e-4,-0.005169 -2.22e-4,-0.005207 -2.29e-4,-0.005245 -2.36e-4,-0.005284 -2.42e-4,-0.005323 -2.5e-4,-0.005361 -2.58e-4,-0.005399 -2.65e-4,-0.005437 -2.73e-4,-0.005477 -2.8e-4,-0.005514 -2.9e-4,-0.005553 -2.97e-4,-0.00559 -3.06e-4,-0.005629 -3.16e-4,-0.005667 -3.24e-4,-0.005705 -3.33e-4,-0.005742 -3.44e-4,-0.00578 -3.53e-4,-0.005817 -3.63e-4,-0.005854 -3.74e-4,-0.005892 -3.84e-4,-0.005928 -3.95e-4,-0.005964 -4.07e-4,-0.006001 -4.18e-4,-0.006036 -4.3e-4,-0.006072 -4.42e-4,-0.006108 -4.54e-4,-0.006142 -4.67e-4,-0.006177 -4.81e-4,-0.006211 -4.93e-4,-0.006245 -5.08e-4,-0.006278 -5.21e-4,-0.006311 -5.36e-4,-0.006344 -5.51e-4,-0.006376 -5.66e-4,-0.006407 -5.81e-4,-0.006438 -5.98e-4,-0.006469 -6.14e-4,-0.006499 -6.3e-4,-0.006528 -6.48e-4,-0.006557 -6.65e-4,-0.006585 -6.84e-4,-0.006612 -7.02e-4,-0.00664 -7.21e-4,-0.006665 -7.4e-4,-0.006692 -7.6e-4,-0.006715 -7.81e-4,-0.00674 -8.02e-4,-0.006763 -8.22e-4,-0.006786 -8.45e-4,-0.006807 -8.68e-4,-0.006828 -8.9e-4,-0.006849 -9.14e-4,-0.006867 -9.38e-4,-0.006885 -9.62e-4,-0.006903 -9.88e-4,-0.006919 -0.001014,-0.006935 -0.00104,-0.006949 -0.001068,-0.006962 -0.001095,-0.006975 -0.001124,-0.006986 -0.001152,-0.006996 -0.001183,-0.007005 -0.001213,-0.007014 -0.001245,-0.00702 -0.001276,-0.007026 -0.001309,-0.00703 -0.001342,-0.007034 -0.001377,-0.007036 -0.001411,-0.007037 -0.001448,-0.007036 -0.001484,-0.007034 -0.001522,-0.007031 -0.00156,-0.007027 -0.001599,-0.00702 -0.00164,-0.007014 -0.00168,-0.007005 -0.001723,-0.006994 -0.001765,-0.006983 -0.001809,-0.00697 -0.001854,-0.006955 -0.0019,-0.006939 -0.001947,-0.006921 -0.001995,-0.006902 -0.002044,-0.006881 -0.002095,-0.006858 -0.002145,-0.006834 -0.002198,-0.006808 -0.002251,-0.006781 -0.002306,-0.006751 -0.002362,-0.00672 -0.002419,-0.006687 -0.002478,-0.006652 -0.002537,-0.006616 -0.002598,-0.006578 -0.002661,-0.006537 -0.002724,-0.006496 -0.002789,-0.006451 -0.002855,-0.006406 -0.002923,-0.006357 -0.002993,-0.006308 -0.003063,-0.006257 -0.003135,-0.006202 -0.00321,-0.006146 -0.003284,-0.006089 -0.003362,-0.006029 -0.00344,-0.00597 -0.00352,-0.0059 -0.003602,-0.00584 -0.003686,-0.00577 -0.003771,-0.0057 -0.003858,-0.00562 -0.003947,-0.00555 -0.004037,-0.00547 -0.00413,-0.00539 -0.004225,-0.00531 -0.004321,-0.00523 -0.004419,-0.00514 -0.00452,-0.00505 -0.004622,-0.00496 -0.004726,-0.00487 -0.004834,-0.00477 -0.004941,-0.00468 -0.005053,-0.00458 -0.005166,-0.00447 -0.005281,-0.00437 -0.005398,-0.00426 -0.005519,-0.00415 -0.005641,-0.00404 -0.005765,-0.00392 -0.005893,-0.00381 -0.006023,-0.00369 -0.006154,-0.00357 -0.006289,-0.00344 -0.006427,-0.00331 -0.006567,-0.00318 -0.006709,-0.00305 -0.006854,-0.00292 -0.007003,-0.00278 -0.007154,-0.00264 -0.007308,-0.0025 -0.007464,-0.00235 -0.007624,-0.00221 -0.007787,-0.00205 -0.007952,-0.0019 -0.008122,-0.00175 -0.008293,-0.00159 -0.008469,-0.00143 -0.008647,-0.00126 -0.008829,-0.0011 -0.009013,-9.31e-4 -0.009203,-7.6e-4 -0.009394,-5.86e-4 -0.009589,-4.1e-4 -0.009788,-2.31e-4 -0.009991,-5e-5 -0.010196,1.34e-4 -0.010407,3.21e-4 -0.01062,5.09e-4 -0.010837,7.02e-4 -0.011058,8.96e-4 -0.011283,0.00109 -0.011512,0.00129 -0.011745,0.0015 -0.011983,0.0017 -0.012223,0.00191 -0.012468,0.00212 -0.012718,0.00233 -0.012972,0.00254 -0.013229,0.00276 -0.013493,0.00298 -0.013759,0.0032 -0.01403,0.00343 -0.014306,0.00366 -0.014587,0.00389 -0.014872,0.00412 -0.015162,0.00435 -0.015457,0.00459 -0.015756,0.00483 -0.016061,0.00507 -0.016369,0.00532 -0.016685,0.00556 -0.017003,0.00581 -0.017328,0.00606 -0.017658,0.00632 -0.017993,0.00657 -0.018333,0.00683 -0.018678,0.0071 -0.01903,0.00736 -0.019386,0.00762 -0.019747,0.00789 -0.020115,0.00816 -0.020489,0.00843 -0.020867,0.00871 -0.021251,0.00898 -0.021642,0.00926 -0.022038,0.00954 -0.02244,0.009823 -0.022847,0.010107 -0.023262,0.010393 -0.023682,0.01068 -0.024108,0.010971 -0.02454,0.011263 -0.024978,0.011556 -0.025423,0.011852 -0.025874,0.012149 -0.026332,0.012448 -0.026795,0.012748 -0.027265,0.013052 -0.027742,0.013355 -0.028224,0.01366 -0.028715,0.013968 -0.029211,0.014276 -0.029713,0.014587 -0.030224,0.014898 -0.030739,0.015212 -0.031263,0.015526 -0.031792,0.015841 -0.032329,0.016159 -0.032873,0.016477 -0.033423,0.016796 -0.03398,0.017117 -0.034544,0.017439 -0.035115,0.017762 -0.035693,0.018086 -0.036279,0.01841 -0.03687,0.018737 -0.037469,0.019063 -0.038075,0.019391 -0.038689,0.019719 -0.039308,0.020048 -0.039935,0.020378 -0.04057,0.020708 -0.04121,0.021039 -0.041859,0.021371 -0.042514,0.021703 -0.043175,0.022036 -0.043845,0.022368 -0.044521,0.022702 -0.045203,0.023034 -0.045894,0.023369 -0.04659,0.023702 -0.047293,0.024037 -0.048004,0.02437 -0.04872,0.024704 -0.049444,0.025038 -0.050174,0.025371 -0.050911,0.025705 -0.051654,0.026039 -0.052403,0.02637 -0.05316,0.026704 -0.053921,0.027035 -0.05469,0.027367 -0.055465,0.027697 -0.056244,0.028027 -0.057031,0.028357 -0.057822,0.028685 -0.05862,0.029013 -0.059423,0.029339 -0.060231,0.029664 -0.061045,0.029989 -0.061863,0.030313 -0.062686,0.030634 -0.063515,0.030954 -0.064347,0.031274 -0.065183,0.03159 -0.066025,0.031907 -0.06687,0.032221 -0.067719,0.032533 -0.06857,0.032843 -0.069427,0.033152 -0.070284,0.033457 -0.071146,0.033762 -0.07201,0.034064 -0.072875,0.034362 -0.073743,0.03466 -0.074613,0.034954 -0.075484,0.035245 -0.076355,0.035534 -0.077228,0.035819 -0.0781,0.036102 L -5.090199,0.970354 -5.170044,1.007011 -5.25076,1.043941 -5.332346,1.08114 -5.414801,1.118604 -5.498121,1.15633 -5.582305,1.194313 -5.66735,1.23255 -5.753251,1.271036 -5.840006,1.309766 -5.927609,1.348736 -6.016054,1.387942 -6.105337,1.427379 -6.195452,1.46704 -6.28639,1.506922 -6.378146,1.547019 -6.470709,1.587325 -6.564073,1.627834 -6.658227,1.668541 -6.753161,1.709439 -6.848864,1.750522 -6.945324,1.791783 -7.04253,1.833216 -7.140467,1.874814 -7.239121,1.916568 -7.338479,1.958473 -7.438523,2.00052 -7.539237,2.042701 -7.640603,2.085008 -7.742603,2.127432 -7.845217,2.169966 -7.948425,2.212599 -8.052204,2.255323 -8.156533,2.298128 -8.261386,2.341003 -8.366739,2.38394 -8.472566,2.426927 -8.57884,2.469953 -8.685531,2.513008 -8.792609,2.55608 -8.900044,2.599156 -9.007802,2.642225 -9.11585,2.685274 -9.224152,2.72829 l -0.108519,0.04297 -0.108697,0.042909 -0.108836,0.042834 -0.108933,0.042745 -0.108986,0.042641 -0.108995,0.04252 -0.108956,0.042384 -0.108869,0.042231 -0.108732,0.04206 -0.108542,0.041873 -0.108299,0.041667 -0.107999,0.041442 -0.10764,0.041197 -0.107223,0.040934 -0.106741,0.040648 -0.106195,0.040343 -0.105584,0.040015 -0.104901,0.039665 -0.104148,0.039291 -0.10332,0.038894 -0.102417,0.038472 -0.101433,0.038025 -0.100368,0.037551 -0.09922,0.037051 -0.09798,0.036522 -0.09666,0.035966 -0.09524,0.03538 -0.09372,0.034763 -0.09211,0.034115 -0.09039,0.033436 -0.08857,0.032723 -0.08664,0.031975 -0.08459,0.031194 -0.08244,0.030375 -0.08016,0.029519 -0.07776,0.028625 -0.07523,0.027692 -0.07258,0.026717 -0.06979,0.025702 -0.06686,0.024642 -0.06379,0.023539 -0.06057,0.02239 -0.05721,0.021194 -0.05369,0.01995 -0.05001,0.018656 -0.04616,0.01731 -0.04215,0.015913 -0.03796,0.014461 -0.0336,0.012952 -0.02905,0.011388 -0.02431,0.00976 -0.01938,0.00808 -0.01425,0.00633 -0.0089,0.00452 -0.0034,0.00264 0.0024,7e-4 0.0084,-0.00131 0.01457,-0.0034 0.02102,-0.00556 0.0277,-0.0078 0.03463,-0.010109 0.04181,-0.012503 0.04926,-0.014977 0.05697,-0.017537 0.06495,-0.020183 0.07322,-0.022919 0.08177,-0.025745 0.09062,-0.028666 0.09977,-0.031683 0.109239,-0.034799 0.119023,-0.038017 0.129136,-0.04134 0.139583,-0.044769 0.150377,-0.048309 0.161523,-0.051962 0.173031,-0.05573 0.184911,-0.059617 0.197172,-0.063628 0.209823,-0.067762 0.222874,-0.072025 0.236334,-0.076421 0.250215,-0.080951 0.264527,-0.08562 0.279278,-0.090431 0.294483,-0.095389 0.31015,-0.100494 0.32629,-0.105755 0.342917,-0.111171 0.360041,-0.11675 L -8.1672,2.651965 -7.771371,2.523561 -7.356853,2.389071 -6.9231,2.248319 -6.469551,2.101122 -5.995633,1.947295 -5.500759,1.786645 -4.98433,1.618979 -4.445729,1.444095 -3.884329,1.26179 -3.299485,1.071852 -2.690538,0.874069 -2.056814,0.66822 -1.397623,0.454079 -0.712259,0.231418"
       id="path6"
       inkscape:connector-curvature="0"
       style="fill:#000000;stroke:#000000;stroke-width:0.036364%;stroke-dasharray:none" />
  </g>
  <path
     style="fill:#ffffff;stroke:none;stroke-width:1.79999995;stroke-linecap:butt;stroke-linejoin:miter;stroke-miterlimit:4;stroke-dasharray:none;stroke-opacity:1"
     d="m 788.05541,537.74711 c -9.32456,-0.43335 -16.34526,-1.74756 -18.97992,-3.55286 -2.59904,-1.78089 -2.42349,-3.99589 0.5816,-7.33828 0.7392,-0.82216 1.28607,-1.55276 1.21528,-1.62355 -0.24136,-0.24137 -11.20853,-5.48327 -14.93052,-7.13624 -2.04099,-0.90643 -7.17916,-3.03933 -11.41816,-4.73978 -4.23899,-1.70045 -7.54175,-3.09406 -7.33947,-3.09691 0.20228,-0.003 8.7275,2.70773 18.94492,6.02349 l 18.57714,6.02867 1.41669,-0.72998 c 1.63455,-0.84222 2.12008,-0.76043 2.37498,0.4001 l 0.18285,0.83252 13.75047,0.0126 c 24.9328,0.0227 157.78351,0.77021 157.90168,0.88838 0.22539,0.22539 -34.54479,4.55051 -55.66051,6.9237 -48.9784,5.50469 -86.82574,8.02798 -106.61703,7.10818 z"
     id="path3340"
     inkscape:connector-curvature="0" />
  <path
     style="fill:#ffffff;stroke-width:1.79999995;stroke-miterlimit:4;stroke-dasharray:none"
     d="m 739.16967,161.91554 c -9.75073,-0.58118 -14.6621,-2.19778 -14.6621,-4.82609 0,-1.09618 0.66507,-2.32848 1.88822,-3.49866 0.44718,-0.42781 0.81305,-0.88353 0.81305,-1.01272 0,-0.50162 -13.41021,-6.6361 -21.01732,-9.61436 -1.43638,-0.56235 -2.49439,-1.06153 -2.35115,-1.10928 0.14325,-0.0477 6.12998,1.81987 13.30386,4.15026 l 13.04342,4.23707 0.98086,-0.56451 c 1.0788,-0.62088 1.8666,-0.50593 1.8666,0.27235 0,0.48001 0.66621,0.50285 19.53125,0.66962 10.74219,0.095 39.90996,0.24786 64.81727,0.33977 24.9073,0.0919 45.43862,0.24799 45.62513,0.34685 0.5259,0.27874 -29.29739,3.97477 -50.25967,6.22874 -32.2704,3.46988 -60.58267,5.1556 -73.57942,4.38096 z"
     id="path4142"
     inkscape:connector-curvature="0" />
  <path
     style="fill:#ffffff;stroke-width:1.79999995;stroke-miterlimit:4;stroke-dasharray:none"
     d="m 726.11512,174.67778 c -6.7564,-0.80334 -9.45782,-1.53855 -11.00959,-2.99637 -1.2291,-1.15467 -1.06414,-2.4279 0.58482,-4.51399 l 1.41927,-1.7955 -4.86642,-2.34091 c -2.67652,-1.2875 -7.09379,-3.28288 -9.81615,-4.43418 -6.39387,-2.70398 -6.44282,-2.72676 -5.92095,-2.75494 0.24366,-0.0132 5.60784,1.65349 11.92042,3.70367 11.23757,3.64971 11.50003,3.7159 12.56045,3.16753 1.12189,-0.58015 1.7694,-0.46473 1.7694,0.31539 0,0.49156 31.73076,0.87152 81.11054,0.97125 13.62828,0.0275 30.18806,0.14685 36.79951,0.26517 l 12.02082,0.21512 -17.85445,2.21993 c -33.76774,4.19853 -59.74195,6.74051 -80.25662,7.85435 -6.03648,0.32775 -26.01407,0.41443 -28.46105,0.12348 z"
     id="path4144"
     inkscape:connector-curvature="0" />
</svg>
