<?xml version="1.0" encoding="UTF-8" standalone="no"?>
<!-- Created with Inkscape (http://www.inkscape.org/) -->

<svg
   xmlns:dc="http://purl.org/dc/elements/1.1/"
   xmlns:cc="http://creativecommons.org/ns#"
   xmlns:rdf="http://www.w3.org/1999/02/22-rdf-syntax-ns#"
   xmlns:svg="http://www.w3.org/2000/svg"
   xmlns="http://www.w3.org/2000/svg"
   xmlns:sodipodi="http://sodipodi.sourceforge.net/DTD/sodipodi-0.dtd"
   xmlns:inkscape="http://www.inkscape.org/namespaces/inkscape"
   width="210mm"
   height="297mm"
   viewBox="0 0 210 297"
   version="1.1"
   id="svg5472"
   inkscape:version="0.92+devel "
   sodipodi:docname="Expanded_Assembly_Outer.svg.2017_06_29_16_02_35.0.svg">
  <sodipodi:namedview
     id="base"
     pagecolor="#ffffff"
     bordercolor="#666666"
     borderopacity="1.0"
     inkscape:pageopacity="0.0"
     inkscape:pageshadow="2"
     inkscape:zoom="4"
     inkscape:cx="113.89997"
     inkscape:cy="246.05862"
     inkscape:document-units="mm"
     inkscape:current-layer="layer2"
     inkscape:document-rotation="0"
     showgrid="false"
     showguides="true"
     inkscape:window-width="1920"
     inkscape:window-height="1017"
     inkscape:window-x="-8"
     inkscape:window-y="-8"
     inkscape:window-maximized="1">
    <inkscape:grid
       type="xygrid"
       id="grid6041" />
  </sodipodi:namedview>
  <defs
     id="defs5466">
    <inkscape:path-effect
       effect="fillet_chamfer"
       id="path-effect4279"
       is_visible="true"
       fillet_chamfer_values="0,0 | 0,1 | 0,1 | 0,1 | 0,1 | 0,1 | 0,1 | 0,1 | 0,1 | 0,1 | 0,1 | 0,1 | 0,1 | 0,0 | 0,1 | 0,1 | 0,1 | 0,1 | 0,1 | 0,1 | 0,1 | 0,1 | 0,1 | 0,1 | 0,1 | 0,1 | 0,1 | 0,1 | 0,1 | 0,1 | 0,1 | 0,1 | 0,1 | 0,1 | 0,1 | 0,1 | 0,1 | 0,1 | 0,1 | 0,1 | 0,1 | 0,1 | 0,1 | 0,1 | 0,1 | 0,1 | 0,1 | 0,1 | 0,1 | 0,1 | 0,1 | 0,1 | 0,1 | 0,1 | 0,1 | 0,1 | 0,1 | 0,1 | 0,1 | 0,1 | 0,1 | 0,1 | 0,1 | 0,1 | 0,0 | 0,1 | 0,1 | 0,1 | 0,1 | 0,1 | 0,1 | 0,1 | 0,1 | 0,1 | 0,1 | 0,1 | 0,1 | 0,1 | 0,1 | 0,1 | 0,1 | 0,1 | 0,1 | 0,1 | 0,1 | 0,1 | 0,1 | 0,1 | 0,1 | 0,1 | 0,1 | 0,1 | 0,1 | 0,1 | 0,1 | 0,1 | 0,1 | 0,1 | 0,1 | 0,1 | 0,1 | 0,1 | 0,1 | 0,1 | 0,1 | 0,1 | 0,1 | 0,1 | 0,1 | 0,1 | 0,1 | 0,1 | 0,1 | 0,1 | 0,1 | 0,1 | 0,1 | 0,0 | 0,0 | 0,0 | 0,1 | 0,1 | 0,1 | 0,1 | 0,1 | 0,1 | 0,1 | 0,1 | 0,1 | 0,1 | 0,1 | 0,1 | 0,1 | 0,1 | 0,1 | 0,1 | 0,1 | 0,1 | 0,1 | 0,1 | 0,1 | 0,1 | 0,1 | 0,1 | 0,1 | 0,1 | 0,1 | 0,1 | 0,1 | 0,1 | 0,1 | 0,1 | 0,1 | 0,1 | 0,1 | 0,1 | 0,1 | 0,1 | 0,1 | 0,1 | 0,1 | 0,1 | 0,0 | 0,0 | 0,0 | -3.0203301,1 | 0,1 | 0,1 | 0,1 | 0,1 | 0,1 | 0,1 | 0,1 | 0,1 | 0,1"
       method="auto"
       radius="0"
       chamfer_steps="1"
       helper_size="0"
       flexible="false"
       use_knot_distance="false"
       ignore_radius_0="false"
       only_selected="false"
       hide_knots="false" />
    <inkscape:path-effect
       effect="fillet_chamfer"
       id="path-effect4365"
       is_visible="true"
       fillet_chamfer_values="0,0 | 0,1 | 0,1 | 0,1 | 0,1 | 0,1 | 0,1 | 0,1 | 0,1 | 0,1 | 0,1 | 0,1 | 0,1 | 0,1 | 0,1 | -0.13737026,1 | -1.873963,1 | 0,1 | -0.29298909,1 | 0,1 | 0,1 | 0,1 | 0,1 | -5.4375,1 | 0,1 | -6.3750001,1 | 0,1 | 0,1 | 0,1 | 0,1 | 0,1 | 0,1 | 0,1 | 0,1 | 0,1 | 0,1 | 0,1 | 0,1 | 0,1 | 0,1 | 0,1 | 0,1 | 0,1 | 0,1 | 0,1 | 0,1 | 0,1 | 0,1 | 0,1 | 0,1 | 0,1 | 0,1 | 0,1 | 0,1 | 0,1 | 0,1 | 0,1 | 0,1 | 0,1 | 0,1 | 0,1 | 0,1 | 0,0 | 0,1 | 0,1 | 0,1 | 0,1 | 0,1 | 0,1 | 0,1 | 0,1 | 0,1 | 0,1 | 0,1 | 0,1 | 0,1 | 0,1 | 0,1 | 0,1 | 0,1 | 0,1 | 0,1 | 0,1 | 0,1 | 0,1 | 0,1 | 0,1 | 0,1 | 0,1 | 0,1 | 0,1 | 0,1 | 0,1 | 0,1 | 0,1 | 0,1 | 0,1 | 0,1 | 0,1 | 0,1 | 0,1 | 0,1 | 0,1 | 0,1 | 0,1 | 0,1 | 0,1 | 0,1 | 0,1 | 0,1 | 0,1 | 0,1 | 0,1 | 0,1 | 0,1 | 0,1 | 0,1 | 0,1 | 0,1 | 0,1 | 0,1 | 0,1 | 0,1 | 0,1 | 0,1 | 0,1 | 0,1 | 0,1 | 0,1 | 0,1 | 0,1 | 0,1 | 0,1 | 0,1 | 0,1 | 0,1 | 0,1 | 0,1 | 0,1 | 0,1 | 0,1 | 0,1 | 0,1 | 0,1 | 0,1 | 0,1 | 0,1 | 0,1 | 0,1 | 0,1 | 0,1 | 0,1 | 0,1 | 0,1 | 0,1 | 0,1 | 0,1 | 0,1 | 0,1 | 0,1 | 0,1 | 0,1 | 0,1 | 0,1 | 0,1 | 0,0 | 0,0 | 0,0 | 0,1 | 0,1 | 0,1 | 0,1 | 0,1 | 0,1 | 0,1 | 0,1 | 0,1 | 0,1"
       method="auto"
       radius="0"
       chamfer_steps="1"
       helper_size="0"
       flexible="false"
       use_knot_distance="false"
       ignore_radius_0="false"
       only_selected="false"
       hide_knots="false" />
    <inkscape:path-effect
       effect="fillet_chamfer"
       id="path-effect4363"
       is_visible="true"
       fillet_chamfer_values="0,0 | -3.3807516e-005,1 | 0,1 | -3.7556474e-005,1 | -3.2809846e-005,1 | 0,1 | 0,1 | 0,1 | 0,1 | -3.3814775e-005,1 | -3.1833339e-005,1 | 0,1 | -0.0030946043,1 | -0.0010786028,1 | 0,1 | -3.8610332e-005,1 | -7.0584075e-005,1 | -0.0002985099,1 | 0,1 | -7.15934e-006,1 | 0,1 | -1,1 | 0,1 | 0,1 | 0,1 | -3.3816265e-005,1 | -3.1150215e-005,1 | 0,1 | -3.7556647e-005,1 | -3.2811447e-005,1 | 0,1 | 0,1 | 0,1 | -3.8066677e-005,1 | -3.3807485e-005,1 | 0,1 | -3.7556541e-005,1 | -3.2797053e-005,1 | 0,1 | 0,1 | 0,1 | 0,1 | 0,1 | -7.5864239e-006,1 | 0,1 | -0.10824449,1 | 0,1 | 0,1 | 0,1 | 0,1 | 0,1 | -3.2689717e-005,1 | -3.0798497e-005,1 | 0,1 | -3.7556622e-005,1 | -3.2370969e-005,1 | 0,1 | -3.7556396e-005,1 | -3.2384273e-005,1 | 0,1 | 0,1 | 0,0 | -3.2384763e-005,1 | 0,1 | 0,1 | 0,1 | -3.3375949e-005,1 | -3.1561448e-005,1 | 0,1 | 0,1 | 0,1 | 0,1 | 0,1 | -3.8049237e-005,1 | -3.2371953e-005,1 | 0,1 | -3.1899211e-005,1 | 0,1 | 0,1 | 0,1 | 0,1 | -3.3812419e-005,1 | -3.1149131e-005,1 | 0,1 | -3.3376221e-005,1 | -3.1561044e-005,1 | 0,1 | 0,1 | 0,1 | -3.8050909e-005,1 | -3.2371958e-005,1 | 0,1 | -3.7556469e-005,1 | -3.2796746e-005,1 | 0,1 | 0,1 | 0,1 | -3.381841e-005,1 | -3.1150437e-005,1 | 0,1 | -3.3375949e-005,1 | -3.156332e-005,1 | 0,1 | 0,1 | -0.036982912,1 | -0.048430427,1 | 0,1 | -3.7556405e-005,1 | -3.2812724e-005,1 | 0,1 | 0,1 | 0,1 | 0,1 | 0,1 | 0,1 | -0.009999,1 | 0,1 | 0,1 | 0,1 | 0,1 | 0,1 | 0,1 | 0,1 | 0,1 | 0,1 | 0,1 | 0,1 | 0,1 | 0,1 | 0,1 | -3.2685457e-005,1 | -3.0798507e-005,1 | 0,1 | -3.2216069e-005,1 | -3.1252445e-005,1 | 0,1 | 0,1 | 0,1 | 0,1 | 0,1 | -3.2218744e-005,1 | 0,1 | 0,1 | 0,1 | -3.0795124e-005,1 | 0,1 | 0,1 | 0,1 | 0,1 | 0,1 | -3.2689904e-005,1 | -3.0798937e-005,1 | 0,1 | 0,1 | 0,1 | 0,1 | -3.124953e-005,1 | 0,1 | 0,1 | 0,1 | 0,1 | -3.2685762e-005,1 | -3.1249849e-005,1 | 0,1 | 0,0 | 0,0 | 0,0 | 0,1 | -1.0071362,1 | -9.238139e-005,1 | -9.2381401e-005,1 | 0,1 | -3.4107617e-005,1 | -3.1561191e-005,1 | 0,1 | 0,1 | 0,1"
       method="auto"
       radius="1"
       chamfer_steps="1"
       helper_size="0"
       flexible="false"
       use_knot_distance="false"
       ignore_radius_0="false"
       only_selected="false"
       hide_knots="false" />
    <inkscape:path-effect
       effect="fillet_chamfer"
       id="path-effect4316"
       is_visible="true"
       fillet_chamfer_values="0,0 | 0,2 | 0,1 | 0,1 | 0,1 | 0,1 | 0,1 | 0,1 | -1,1 | 0,1 | 0,1 | -1,1 | 0,1 | 0,1 | -2,1 | 0,1 | -2,1 | 0,1 | 0,1 | 0,1 | -1,1 | 0,1 | -1,1 | 0,1 | 0,1 | 0,1 | -2,1 | 0,1 | -2,1 | 0,1 | 0,1 | 0,1 | -2,1 | 0,1 | -1,1 | 0,1 | 0,1 | 0,1 | 0,1 | 0,1 | -2,1 | 0,1 | 0,1 | 0,1 | -1,1 | -3,1 | 0,1 | -1,1 | 0,1 | -1,1 | 0,1 | -3,1 | 0,1 | -3,1 | 0,1 | 0,1 | 0,1 | -2,1 | 0,1 | 0,1 | 0,1 | 0,1 | 0,1 | -1,1 | 0,1 | -1,1 | 0,1 | 0,1 | 0,1 | -1,1 | 0,1 | -2,1 | 0,1 | 0,1 | 0,1 | 0,1 | 0,1 | -2.9707408,1 | 0,1 | 0,1 | 0,1 | 81.01,1 | -0.0093497633,1 | -2,1 | 0,1 | 0,1 | 0,1 | 0,1 | -1,1 | 0,1 | -1,1 | 0,1 | 0,1 | 0,1 | 0,1 | -2,1 | 0,1 | -0.00013836795,1 | -0.0001406093,1 | 0,1 | 0,0 | 0,0 | -0.99969865,1 | 0,1 | -3,1 | 0,1 | 0,1 | 0,1 | 0,1 | -3,1 | 0,1 | 0,1 | 0,1 | -3,1 | 0,1 | 0,1 | 0,1 | 0,1 | 0,1 | -3,1 | 0,1 | -3,1 | 0,1 | 0,1 | 0,1 | 0,1 | 0,1 | -3,1 | 0,1 | -3,1 | 0,1 | 0,1 | 0,1 | 0,1 | 0,1 | 0,1 | -0.5,1 | 0,1 | 0,1"
       method="auto"
       radius="3"
       chamfer_steps="1"
       helper_size="0"
       flexible="false"
       use_knot_distance="false"
       ignore_radius_0="false"
       only_selected="false"
       hide_knots="false" />
    <inkscape:path-effect
       hide_knots="false"
       only_selected="true"
       ignore_radius_0="false"
       use_knot_distance="false"
       flexible="false"
       helper_size="0"
       chamfer_steps="1"
       radius="0"
       method="auto"
       fillet_chamfer_values="0,0 | 0,1 | 0,1 | 0,1 | 0,1 | 0,1 | 0,1 | 0,1 | 0,1 | 0,1 | 0,1 | 0,1 | 0,1 | 0,1 | 0,1 | 0,1 | 0,1 | 0,1 | 0,1 | 0,1 | 0,1 | 0,1 | 0,1 | 0,1 | 0,1 | 0,1 | 0,1 | 0,1 | 0,1 | 0,1 | 0,1 | 0,1 | 0,1 | 0,1 | 0,1 | 0,1 | 0,1 | 0,1 | 0,1 | 0,1 | 0,1 | 0,1 | 0,1 | 0,1 | 0,1 | 0,1 | 0,1 | 0,1 | 0,1 | 0,1 | 0,1 | 0,1 | 0,1 | 0,1 | 0,1 | 0,1 | 0,1 | 0,1 | 0,1 | 0,1 | 0,1 | 0,1 | 0,1 | 0,1 | 0,1 | 0,1 | 0,1 | 0,1 | 0,1 | 0,1 | 0,1 | 0,1 | 0,1 | 0,1 | 0,1 | 0,1 | 0,1 | 0,1 | 0,1 | 0,1 | 0,1 | 0,1 | 0,1 | 0,1 | 0,1 | 0,1 | 0,1 | 0,1 | 0,1 | 0,1 | 0,1 | 0,0 | 0,1 | 0,1 | 0,1 | 0,1 | 0,1 | 0,1 | 0,1 | 0,1 | 0,1 | 0,1 | 0,1 | 0,1 | 0,1 | 0,1 | 0,1 | 0,1 | 0,1 | 0,1 | 0,1 | 0,1 | 0,1 | 0,1 | 0,1 | 0,1 | 0,1 | 0,1 | 0,1 | 0,1 | 0,1 | 0,1 | 0,1 | 0,1"
       is_visible="true"
       id="path-effect4294"
       effect="fillet_chamfer" />
  </defs>
  <metadata
     id="metadata5469">
    <rdf:RDF>
      <cc:Work
         rdf:about="">
        <dc:format>image/svg+xml</dc:format>
        <dc:type
           rdf:resource="http://purl.org/dc/dcmitype/StillImage" />
        <dc:title />
      </cc:Work>
    </rdf:RDF>
  </metadata>
  <g
     inkscape:label="Layer 1"
     inkscape:groupmode="layer"
     id="layer1">
    <rect
       style="fill:none;fill-opacity:1;fill-rule:evenodd;stroke:#050000;stroke-width:0.02;stroke-miterlimit:4;stroke-dasharray:none;stroke-opacity:1"
       id="rect4136-3"
       width="72.480957"
       height="72.480965"
       x="0.0099999998"
       y="224.50903" />
    <rect
       y="225.90282"
       x="1.152818"
       height="69.944366"
       width="69.944366"
       id="rect6505"
       style="fill:#ff0000;fill-opacity:1;fill-rule:evenodd;stroke:none;stroke-width:0.02;stroke-miterlimit:4;stroke-dasharray:none;stroke-opacity:1" />
  </g>
  <g
     inkscape:groupmode="layer"
     id="layer2"
     inkscape:label="Maze">
    <path
       style="fill:#ffffff;fill-opacity:1;fill-rule:evenodd;stroke:none;stroke-width:0.07559055;stroke-linejoin:round;stroke-miterlimit:4;stroke-dasharray:none;stroke-opacity:1"
       d="m 16.128906,888.86719 c -2.087193,1.3e-4 -3.779166,1.6921 -3.779297,3.77929 v 2.84375 7.3418 c 1.26e-4,2.0872 1.6921,3.77917 3.779297,3.7793 h 2.558594 7.685547 14.023437 13.769532 6.210937 c 4.174389,2.5e-4 7.558337,3.3842 7.558594,7.55859 v 2.42774 0.0703 c -0.01876,2.66533 0.01544,-0.0679 -6.7e-4,2.58269 -0.02355,3.86153 -5.129029,6.44409 -6.212221,6.46224 l -7.724609,0.0176 -13.589844,0.13476 -1.826172,0.0176 -12.349609,0.11914 -2.654297,0.0274 c -9.97657,0.0115 -11.290929,0.93127 -11.228516,11.33789 v 0.42578 0.28711 c -0.103074,3.10608 2.331412,5.70759 5.4375,5.81054 h 8.572266 7.634766 20.21875 0.166015 6.451172 c 4.174393,2.5e-4 7.558343,3.38421 7.558594,7.5586 v 0.082 3.86328 c -1.26e-4,2.0872 -1.6921,3.77917 -3.779297,3.7793 h -1.037109 -8.9375 -6.419922 -3.556641 c -2.087193,1.3e-4 -3.779166,1.69211 -3.779297,3.77929 v 2.33399 7.42773 c 1.26e-4,2.0872 1.6921,3.77917 3.779297,3.7793 h 14.730469 18.509766 18.509765 18.511717 18.50977 8.94922 c 4.41317,6e-5 8.23014,3.07477 9.16992,7.38672 l 0.39062,1.7832 v 14.26563 14.26365 2.9257 c 7.3e-4,6.2631 -5.07671,11.3406 -11.33984,11.3399 h -2.92578 -2.92578 c -6.26159,4e-4 -11.33751,5.0763 -11.33789,11.3379 v 2.416 2.334 c -1.3e-4,2.0872 -1.6921,3.7792 -3.7793,3.7793 h -10.48633 -2.58789 c -2.0872,-10e-5 -3.77917,-1.6921 -3.7793,-3.7793 v -2.334 -7.6406 c 0.0245,-6.2376 -5.012434,-11.3138 -11.249996,-11.3379 -2.087197,-1e-4 -3.779171,-1.6921 -3.779297,-3.7793 v -1.4395 -10.4453 -10.44329 -2.88476 c -2.51e-4,-4.17439 -3.384201,-7.55835 -7.558594,-7.5586 h -4.541015 -12.09961 -17.066406 -17.066406 -7.63086 -5.65625 c -2.087197,1.3e-4 -3.779171,1.6921 -3.779297,3.7793 v 2.33399 4.4414 c 2.51e-4,4.17516 3.385391,7.55936 7.560547,7.55856 h 6.449219 14.009766 14.009765 6.451172 c 4.174393,3e-4 7.558343,3.3842 7.558594,7.5586 v 1.33 1.9903 c -2.51e-4,4.1744 -3.384201,7.5583 -7.558594,7.5586 H 54.378906 40.369141 26.359375 16.128906 c -2.087197,10e-5 -3.779171,1.6921 -3.779297,3.7793 v 7.5586 2.3339 c 1.26e-4,2.0872 1.6921,3.7792 3.779297,3.7793 h 10.230469 14.009766 14.009765 6.451172 c 4.174393,3e-4 7.558343,3.3842 7.558594,7.5586 v 0.082 0.084 c -2.51e-4,4.1744 -3.384201,7.5583 -7.558594,7.5586 h -6.195312 -6.242188 -3.734375 c -1.91571,-0.1714 -3.607706,1.2425 -3.779297,3.1582 v 2.955 9.4688 c 1.26e-4,2.0872 1.6921,3.7792 3.779297,3.7793 h 16.853516 20.632812 20.632809 8.47266 4.46484 c 1.74449,0 2.82593,0.018 4.56951,0.078 2.03569,0.023 3.03982,2.0959 3.07966,3.582 0.0683,0.8222 0.0442,0.7416 0.0442,1.5658 -4.6e-4,1.0444 0.84628,1.8912 1.89063,1.8907 h 2.20117 3.03516 3.21484 3.41406 13.75586 13.75391 2.41797 c 6.26159,-4e-4 11.33751,-5.0763 11.33789,-11.3379 v -2.418 -2.416 c 3.8e-4,-6.2616 5.0763,-11.3375 11.33789,-11.3379 h 2.58594 13.92578 13.92578 13.92383 13.92578 2.58593 c 6.26237,-4e-4 11.33863,-5.0774 11.3379,-11.3398 v -1.9063 -1.9062 c 6.7e-4,-6.2623 -5.07556,-11.3395 -11.3379,-11.3399 h -2.58593 -13.92578 -13.92383 -13.92578 -13.92578 -2.58594 c -6.26159,-4e-4 -11.33751,-5.0763 -11.33789,-11.3379 V 1011.125 993.80273 976.48242 970.5 c -0.005,-6.25841 -5.07947,-11.3297 -11.33789,-11.33008 h -2.58789 -13.92383 -13.92578 -13.92383 -2.58985 c -6.26158,-3.8e-4 -11.33751,-5.0763 -11.33789,-11.33789 v -2.36914 -15.83008 c 0,-2.08675 -1.69255,-3.77824 -3.77929,-3.77929 -2.20464,-10e-4 -4.41383,-0.004 -6.621096,-0.004 -1.403751,0 -2.805659,6e-4 -4.205078,0.004 -0.851731,0 -2.055123,0.005 -3.175059,0.0115 -1.66805,0.009 -3.020254,-1.3326 -3.020254,-3.00068 v -2.28436 L 88,910.00977 v -10.57227 -3.01172 c -2.57e-4,-4.17439 -3.384205,-7.55834 -7.558594,-7.55859 H 75.896484 63.792969 46.462891 29.40625 Z"
       transform="scale(0.26458333)"
       id="path6478"
       inkscape:connector-curvature="0"
       sodipodi:nodetypes="cccccccccccccccccccccccccccccccccccccccccccccccccccccccccccccccccccccccccccccccccccccccccccccccccccccccccccccccccccccccccccccccccccccccccccccccccccccccccccccccccscscccccccccccc"
       inkscape:path-effect="#path-effect4279"
       inkscape:original-d="m 16.128906,888.86719 c -2.087193,1.3e-4 -3.779166,1.6921 -3.779297,3.77929 v 2.84375 7.3418 c 1.26e-4,2.0872 1.6921,3.77917 3.779297,3.7793 h 2.558594 7.685547 14.023437 13.769532 6.210937 c 4.174389,2.5e-4 7.558337,3.3842 7.558594,7.55859 v 2.42774 0.0703 c -0.01876,2.66533 0.01544,-0.0679 -6.7e-4,2.58269 -0.02355,3.86153 -5.129029,6.44409 -6.212221,6.46224 l -7.724609,0.0176 -13.589844,0.13476 -1.826172,0.0176 -12.349609,0.11914 -2.654297,0.0274 c -9.97657,0.0115 -11.290929,0.93127 -11.228516,11.33789 v 0.42578 0.28711 c -0.103074,3.10608 2.331412,5.70759 5.4375,5.81054 h 8.572266 7.634766 20.21875 0.166015 6.451172 c 4.174393,2.5e-4 7.558343,3.38421 7.558594,7.5586 v 0.082 3.86328 c -1.26e-4,2.0872 -1.6921,3.77917 -3.779297,3.7793 h -1.037109 -8.9375 -6.419922 -3.556641 c -2.087193,1.3e-4 -3.779166,1.69211 -3.779297,3.77929 v 2.33399 7.42773 c 1.26e-4,2.0872 1.6921,3.77917 3.779297,3.7793 h 14.730469 18.509766 18.509765 18.511717 18.50977 8.94922 c 4.41317,6e-5 8.23014,3.07477 9.16992,7.38672 l 0.39062,1.7832 v 14.26563 14.26365 2.9257 c 7.3e-4,6.2631 -5.07671,11.3406 -11.33984,11.3399 h -2.92578 -2.92578 c -6.26159,4e-4 -11.33751,5.0763 -11.33789,11.3379 v 2.416 2.334 c -1.3e-4,2.0872 -1.6921,3.7792 -3.7793,3.7793 h -10.48633 -2.58789 c -2.0872,-10e-5 -3.77917,-1.6921 -3.7793,-3.7793 v -2.334 -7.6406 c 0.0245,-6.2376 -5.012434,-11.3138 -11.249996,-11.3379 -2.087197,-1e-4 -3.779171,-1.6921 -3.779297,-3.7793 v -1.4395 -10.4453 -10.44329 -2.88476 c -2.51e-4,-4.17439 -3.384201,-7.55835 -7.558594,-7.5586 h -4.541015 -12.09961 -17.066406 -17.066406 -7.63086 -5.65625 c -2.087197,1.3e-4 -3.779171,1.6921 -3.779297,3.7793 v 2.33399 4.4414 c 2.51e-4,4.17516 3.385391,7.55936 7.560547,7.55856 h 6.449219 14.009766 14.009765 6.451172 c 4.174393,3e-4 7.558343,3.3842 7.558594,7.5586 v 1.33 1.9903 c -2.51e-4,4.1744 -3.384201,7.5583 -7.558594,7.5586 H 54.378906 40.369141 26.359375 16.128906 c -2.087197,10e-5 -3.779171,1.6921 -3.779297,3.7793 v 7.5586 2.3339 c 1.26e-4,2.0872 1.6921,3.7792 3.779297,3.7793 h 10.230469 14.009766 14.009765 6.451172 c 4.174393,3e-4 7.558343,3.3842 7.558594,7.5586 v 0.082 0.084 c -2.51e-4,4.1744 -3.384201,7.5583 -7.558594,7.5586 h -6.195312 -6.242188 -3.734375 c -1.91571,-0.1714 -3.607706,1.2425 -3.779297,3.1582 v 2.955 9.4688 c 1.26e-4,2.0872 1.6921,3.7792 3.779297,3.7793 h 16.853516 20.632812 20.632809 8.47266 4.46484 c 1.74449,0 2.82593,0.018 4.56951,0.078 2.03569,0.023 3.03982,2.0959 3.07966,3.582 0.0683,0.8222 0.0442,0.7416 0.0442,1.5658 -4.6e-4,1.0444 0.84628,1.8912 1.89063,1.8907 h 2.20117 3.03516 3.21484 3.41406 13.75586 13.75391 2.41797 c 6.26159,-4e-4 11.33751,-5.0763 11.33789,-11.3379 v -2.418 -2.416 c 3.8e-4,-6.2616 5.0763,-11.3375 11.33789,-11.3379 h 2.58594 13.92578 13.92578 13.92383 13.92578 2.58593 c 6.26237,-4e-4 11.33863,-5.0774 11.3379,-11.3398 v -1.9063 -1.9062 c 6.7e-4,-6.2623 -5.07556,-11.3395 -11.3379,-11.3399 h -2.58593 -13.92578 -13.92383 -13.92578 -13.92578 -2.58594 c -6.26159,-4e-4 -11.33751,-5.0763 -11.33789,-11.3379 V 1011.125 993.80273 976.48242 970.5 c -0.005,-6.25841 -5.07947,-11.3297 -11.33789,-11.33008 h -2.58789 -13.92383 -13.92578 -13.92383 -2.58985 c -6.26158,-3.8e-4 -11.33751,-5.0763 -11.33789,-11.33789 v -2.36914 -15.83008 c 0,-2.08675 -1.69255,-3.77824 -3.77929,-3.77929 -2.20464,-10e-4 -4.41383,-0.004 -6.621096,-0.004 -1.403751,0 -2.805659,6e-4 -4.205078,0.004 -2.064556,0 -6.195313,0.0312 -6.195313,0.0312 v -5.30469 L 88,910.00977 v -10.57227 -3.01172 c -2.57e-4,-4.17439 -3.384205,-7.55834 -7.558594,-7.55859 H 75.896484 63.792969 46.462891 29.40625 Z" />
  </g>
</svg>
