<?xml version="1.0" encoding="UTF-8" standalone="no"?>
<!-- Created with Inkscape (http://www.inkscape.org/) -->

<svg
   xmlns:dc="http://purl.org/dc/elements/1.1/"
   xmlns:cc="http://creativecommons.org/ns#"
   xmlns:rdf="http://www.w3.org/1999/02/22-rdf-syntax-ns#"
   xmlns:svg="http://www.w3.org/2000/svg"
   xmlns="http://www.w3.org/2000/svg"
   xmlns:sodipodi="http://sodipodi.sourceforge.net/DTD/sodipodi-0.dtd"
   xmlns:inkscape="http://www.inkscape.org/namespaces/inkscape"
   width="210mm"
   height="297mm"
   viewBox="0 0 744.09448819 1052.3622047"
   id="svg2"
   version="1.1"
   inkscape:version="0.91 r13725"
   sodipodi:docname="Big_Square.svg">
  <defs
     id="defs4" />
  <sodipodi:namedview
     id="base"
     pagecolor="#ffffff"
     bordercolor="#666666"
     borderopacity="1.0"
     inkscape:pageopacity="0.0"
     inkscape:pageshadow="2"
     inkscape:zoom="1.979899"
     inkscape:cx="314.1248"
     inkscape:cy="128.72256"
     inkscape:document-units="px"
     inkscape:current-layer="layer1"
     showgrid="false"
     inkscape:window-width="1920"
     inkscape:window-height="1018"
     inkscape:window-x="-8"
     inkscape:window-y="-8"
     inkscape:window-maximized="1" />
  <metadata
     id="metadata7">
    <rdf:RDF>
      <cc:Work
         rdf:about="">
        <dc:format>image/svg+xml</dc:format>
        <dc:type
           rdf:resource="http://purl.org/dc/dcmitype/StillImage" />
        <dc:title></dc:title>
      </cc:Work>
    </rdf:RDF>
  </metadata>
  <g
     inkscape:label="Layer 1"
     inkscape:groupmode="layer"
     id="layer1">
    <rect
       style="fill:none;fill-opacity:1;fill-rule:evenodd;stroke:#050000;stroke-width:0.07086614;stroke-miterlimit:4;stroke-dasharray:none;stroke-opacity:1"
       id="rect4136"
       width="177.06039"
       height="177.06038"
       x="0.052486811"
       y="875.24939" />
    <path
       style="fill:#ffffff;fill-opacity:1;fill-rule:evenodd;stroke:none;stroke-width:0.01707062;stroke-miterlimit:4;stroke-dasharray:none;stroke-opacity:1"
       d="m 80.665783,1017.6946 0,-4.3026 -24.893553,0 -24.893549,0 0,-3.6878 0,-3.688 8.297868,0 8.297844,0 0,-4.61 0,-4.61011 -16.903033,0 -16.90303,0 0,-3.68773 0,-3.68802 16.90303,0 16.903033,0 0,-8.9124 0,-8.91249 -16.903033,0 -16.90303,0 0,-3.68795 0,-3.68792 20.590958,0 20.590981,0 0,12.60042 0,12.60034 4.302569,0 4.302593,0 0,8.29796 0,8.2979 8.605188,0 8.605164,0 0,-8.2979 0,-8.29796 8.605188,0 8.605159,0 0,-17.21024 0,-17.21037 -33.498709,0 -33.49874,0 0,-3.68794 0,-3.68795 8.297868,0 8.297842,0 0,-4.60991 0,-4.60993 -16.903031,0 -16.90303,0 0,-3.67804 0,-3.67805 16.749369,-0.16353 16.749372,-0.16349 0.17045,-8.75882 0.170449,-8.75888 -16.919897,0 -16.919921,0 0,-3.99525 0,-3.99524 20.578503,0 20.57848,0 0.166121,12.75411 0.166103,12.75408 4.148906,0.18169 4.148934,0.18166 0,8.26977 0,8.26976 25.200872,0 25.200879,0 0,20.8983 0,20.89827 25.20088,0 25.20087,0 0,7.99044 0,7.99052 -25.20087,0 -25.20088,0 0,8.2982 0,8.2976 -16.59569,0 -16.595708,0 0,-4.3025 z"
       id="path6478"
       inkscape:connector-curvature="0" />
    <rect
       style="fill:none;fill-opacity:1;fill-rule:evenodd;stroke:none;stroke-width:0.09447626;stroke-miterlimit:4;stroke-dasharray:none;stroke-opacity:1"
       id="rect4136-9"
       width="159.35434"
       height="159.35432"
       x="8.9055061"
       y="884.10236" />
    <path
       style="fill:#ff0000;fill-opacity:1;fill-rule:evenodd;stroke:none;stroke-width:0.01793021;stroke-miterlimit:4;stroke-dasharray:none;stroke-opacity:1"
       d="m 8.8582677,963.95447 0,-79.54952 79.4232433,0 79.423239,0 0,79.54952 0,79.54943 -79.423239,0 -79.4232433,0 0,-79.54943 z m 104.8033223,50.00253 0,-8.3338 25.25381,0 25.25382,0 0,-8.08116 0,-8.08122 -25.25382,0 -25.25381,0 0,-20.96067 0,-20.96066 -25.127541,0 -25.127544,0 0,-8.06632 c 0,-5.33446 -0.08934,-8.12153 -0.263789,-8.22934 -0.145083,-0.0897 -2.00461,-0.22657 -4.132284,-0.30423 l -3.868498,-0.14119 -0.159349,-2.04666 c -0.08764,-1.12566 -0.160031,-5.69394 -0.160864,-10.15173 -7.58e-4,-4.45779 -0.07564,-9.31665 -0.166248,-10.79747 l -0.164736,-2.6924 -20.606526,0.0646 -20.606526,0.0646 0,4.04061 0,4.04061 16.896438,0.0649 16.896437,0.0649 -0.14804,8.48256 c -0.08142,4.66542 -0.222158,8.55685 -0.312748,8.64763 -0.09059,0.0908 -6.945516,0.2357 -15.233169,0.32204 -8.287653,0.0863 -15.781762,0.17156 -16.653575,0.1894 l -1.585114,0.0324 0.06988,3.72494 0.06989,3.72493 16.856921,0.0649 16.85692,0.0649 0,4.41763 0,4.41763 -8.207489,0 -8.20749,0 0,3.91434 0,3.91434 33.461303,0 33.461303,0 0,17.04632 0,17.04633 -8.586297,0 -8.586296,0 0,8.33376 0,8.33368 -8.456578,0 -8.456575,0 -0.06659,-8.27055 -0.06658,-8.27062 -4.356283,-0.0691 -4.356283,-0.0691 0,-12.62242 0,-12.62242 -20.644992,0.0646 -20.644993,0.0646 -0.06989,3.72494 -0.06988,3.72494 16.926806,0 16.926806,0 0,8.83883 0,8.83884 -16.926806,0 -16.926806,0 0.06988,3.72494 0.06989,3.72493 16.856921,0.0649 16.85692,0.0649 0,4.54389 0,4.5439 -8.207489,0 -8.20749,0 0,3.7881 0,3.788 24.875007,0 24.875006,0 0,4.2932 0,4.2931 16.667517,0 16.667513,0 0,-8.3337 z"
       id="path4717"
       inkscape:connector-curvature="0" />
    <path
       style="fill:#ffffff;fill-opacity:1;fill-rule:evenodd;stroke:#000000;stroke-width:0.07086614;stroke-miterlimit:4;stroke-dasharray:none;stroke-opacity:1"
       d="m 282.50829,1016.8097 0,-4.2985 -24.86965,0 -24.86966,0 0,-3.6844 0,-3.6844 8.2899,0 8.28988,0 0,-4.6054 0,-4.60553 -16.88681,0 -16.88681,0 0,-3.68442 0,-3.68438 16.88681,0 16.88681,0 0,-8.90393 0,-8.90395 -16.88681,0 -16.88681,0 0,-3.68439 0,-3.68439 20.5712,0 20.57122,0 0,12.58834 0,12.58832 4.29844,0 4.29846,0 0,8.28991 0,8.28982 8.59693,0 8.5969,0 0,-8.28982 0,-8.28991 8.59694,0 8.5969,0 0,-17.19383 0,-17.19384 -33.46657,0 -33.46658,0 0,-3.68439 0,-3.68441 8.2899,0 8.28988,0 0,-4.60549 0,-4.60549 -16.88681,0 -16.88681,0 0,-3.67452 0,-3.67453 16.7333,-0.1634 16.7333,-0.16341 0.17027,-8.75041 0.17029,-8.75046 -16.90365,0 -16.90369,0 0,-3.99142 0,-3.99141 20.55877,0 20.55872,0 0.16595,12.74185 0.16595,12.74185 4.14493,0.18151 4.14496,0.1815 0,8.26184 0,8.26181 25.17667,0 25.1767,0 0,20.87824 0,20.87823 25.17671,0 25.17669,0 0,7.98285 0,7.98286 -25.17669,0 -25.17671,0 0,8.2899 0,8.2899 -16.57976,0 -16.57979,0 0,-4.2985 z"
       id="path6478-5"
       inkscape:connector-curvature="0" />
    <rect
       style="fill:none;fill-opacity:1;fill-rule:evenodd;stroke:#000000;stroke-width:0.07086614;stroke-miterlimit:4;stroke-dasharray:none;stroke-opacity:1"
       id="rect6505"
       width="159.3221"
       height="159.32208"
       x="210.75781"
       y="883.30267" />
  </g>
</svg>
