<?xml version="1.0" encoding="UTF-8" standalone="no"?>
<svg
   xmlns:dc="http://purl.org/dc/elements/1.1/"
   xmlns:cc="http://creativecommons.org/ns#"
   xmlns:rdf="http://www.w3.org/1999/02/22-rdf-syntax-ns#"
   xmlns:svg="http://www.w3.org/2000/svg"
   xmlns="http://www.w3.org/2000/svg"
   xmlns:sodipodi="http://sodipodi.sourceforge.net/DTD/sodipodi-0.dtd"
   xmlns:inkscape="http://www.inkscape.org/namespaces/inkscape"
   width="1500"
   height="1500"
   id="svg2"
   version="1.1"
   inkscape:version="0.91 r13725"
   sodipodi:docname="curve_circle.svg">
  <metadata
     id="metadata12">
    <rdf:RDF>
      <cc:Work
         rdf:about="">
        <dc:format>image/svg+xml</dc:format>
        <dc:type
           rdf:resource="http://purl.org/dc/dcmitype/StillImage" />
        <dc:title></dc:title>
      </cc:Work>
    </rdf:RDF>
  </metadata>
  <defs
     id="defs10" />
  <sodipodi:namedview
     pagecolor="#ffffff"
     bordercolor="#666666"
     borderopacity="1"
     objecttolerance="10"
     gridtolerance="10"
     guidetolerance="10"
     inkscape:pageopacity="0"
     inkscape:pageshadow="2"
     inkscape:window-width="1530"
     inkscape:window-height="953"
     id="namedview8"
     showgrid="false"
     inkscape:zoom="5.0346667"
     inkscape:cx="173.85255"
     inkscape:cy="718.23905"
     inkscape:window-x="0"
     inkscape:window-y="0"
     inkscape:window-maximized="0"
     inkscape:current-layer="svg2" />
  <g
     transform="matrix(3.0908092,0,0,-3.0908092,220.5317,792.80478)"
     id="g4"
     style="opacity:1;fill:none;fill-opacity:1;stroke:#000000;stroke-width:0.02292802;stroke-miterlimit:4;stroke-dasharray:none;stroke-opacity:1">
    <path
       d="m 0.004693,0 0.1638,0.266532 0.156344,0.26299 0.148967,0.259525 0.141672,0.256138 0.134456,0.252823 0.127324,0.249581 0.120274,0.246407 0.113308,0.2433 0.106424,0.24026 L 1.316889,2.514838 1.409802,2.749204 1.496086,2.980713 1.575828,3.209422 1.649114,3.435387 1.716031,3.658663 1.776664,3.8793 1.831102,4.09735 1.879431,4.312862 1.921739,4.525882 1.958115,4.736455 1.988646,4.944626 2.01342,5.150438 2.032525,5.35393 2.04605,5.555142 2.054084,5.754113 2.056713,5.950878 2.054027,6.145474 2.046115,6.337933 2.033064,6.528289 2.014962,6.716572 1.991899,6.902813 1.96396,7.087041 1.931236,7.269284 1.893812,7.449567 1.851777,7.627916 1.805218,7.804357 1.754222,7.978911 1.698875,8.151601 1.639263,8.322449 1.575474,8.491475 1.507593,8.658698 1.435705,8.824136 1.359895,8.987808 1.280248,9.149729 1.196849,9.309916 1.109781,9.468383 1.019127,9.625145 0.924972,9.780216 0.827397,9.933607 0.726484,10.085331 0.622316,10.235399 0.514973,10.383822 0.404535,10.53061 0.291083,10.675771 0.174697,10.819315 0.055455,10.96125 l -0.122019,0.140333 -0.124719,0.138738 -0.127342,0.13715 -0.129887,0.135567 -0.132357,0.13399 -0.134752,0.132418 -0.137071,0.13085 -0.139317,0.129287 -0.14149,0.127727 -0.143589,0.12617 -0.145617,0.124616 -0.147573,0.123065 -0.149459,0.121516 -0.151274,0.119968 -0.153021,0.118422 -0.154699,0.116877 -0.156308,0.115333 -0.157852,0.113789 -0.159328,0.112247 -0.160739,0.110703 -0.162085,0.10916 -0.163367,0.107616 -0.164586,0.106072 -0.165741,0.104528 -0.166836,0.102981 -0.167869,0.101434 -0.168841,0.09988 -0.169755,0.09834 -0.17061,0.09678 -0.171406,0.09523 -0.172145,0.09368 -0.172829,0.09212 -0.173456,0.09056 -0.174028,0.089 -0.174548,0.08744 -0.175012,0.08587 -0.175426,0.0843 -0.175787,0.08273 -0.176098,0.08116 -0.176359,0.07959 -0.17657,0.07801 -0.176734,0.07643 -0.176849,0.07485 -0.176917,0.07327 -0.176941,0.07168 -0.176918,0.07009 -0.176851,0.0685 -0.176741,0.06691 -0.176588,0.06531 -0.176392,0.06372 -0.176157,0.06212 -0.175879,0.06052 -0.175564,0.05891 -0.175208,0.05731 -0.174816,0.0557 -0.174385,0.05409 -0.173918,0.05248 -0.173416,0.05087 -0.172879,0.04926 -0.172307,0.04764 -0.171703,0.04603 -0.171066,0.04442 -0.170396,0.0428 -0.169697,0.04118 -0.168967,0.03956 -0.168206,0.03794 -0.167419,0.03632 -0.166601,0.03471 -0.165759,0.03309 -0.164887,0.03147 -0.163992,0.02985 -0.163071,0.02823 -0.162126,0.02661 -0.161157,0.025 -0.160165,0.02338 -0.159151,0.02177 -0.158116,0.02015 -0.15706,0.01854 -0.155984,0.01693 -0.154888,0.01532 -0.153775,0.01372 -0.152642,0.01211 -0.151493,0.01051 -0.150327,0.0089 -0.149146,0.0073 -0.147948,0.0057 -0.146736,0.0041 -0.145511,0.0025 -0.144272,9.58e-4 -0.14302,-6.22e-4 -0.141756,-0.0022 -0.140481,-0.0038 -0.139195,-0.0053 -0.137898,-0.0069 -0.136593,-0.0085 -0.135278,-0.01002 -0.133955,-0.01156 -0.132624,-0.01311 -0.131286,-0.01465 -0.12994,-0.01618 -0.12859,-0.01771 -0.127234,-0.01923 -0.125872,-0.02074 -0.124506,-0.02225 -0.123137,-0.02376 -0.121763,-0.02525 -0.120388,-0.02674 -0.11901,-0.02822 -0.11763,-0.0297 -0.116249,-0.03116 -0.114867,-0.03262 -0.113485,-0.03407 -0.112103,-0.03552 -0.110722,-0.03695 -0.109342,-0.03838 -0.107964,-0.0398 -0.106588,-0.04121 -0.105215,-0.04261 -0.103844,-0.044 -0.102476,-0.04538 -0.101114,-0.04675 -0.09975,-0.04812 -0.0984,-0.04947 -0.09705,-0.05082 -0.09571,-0.05215 -0.09437,-0.05347 -0.09304,-0.05479 -0.09172,-0.05609 -0.0904,-0.05738 -0.08909,-0.05866 -0.08779,-0.05993 -0.08649,-0.06119 -0.08521,-0.06244 -0.08393,-0.06368 -0.08266,-0.0649 -0.08141,-0.06611 -0.08016,-0.06732 -0.07892,-0.06851 -0.07769,-0.06968 -0.07648,-0.07085 -0.07527,-0.072 -0.07408,-0.07314 -0.0729,-0.07427 -0.07173,-0.07539 -0.07057,-0.07649 -0.06942,-0.07758 -0.06829,-0.07866 -0.06717,-0.07972 -0.06606,-0.08077 -0.06497,-0.08181 -0.06389,-0.08283 -0.06282,-0.08384 -0.06177,-0.08484 -0.06073,-0.08582 -0.05971,-0.08679 -0.0587,-0.08774 -0.05771,-0.08868 -0.05673,-0.08961 -0.05577,-0.09052 -0.05482,-0.09143 -0.05389,-0.09231 -0.05297,-0.09318 -0.05207,-0.09404 -0.05118,-0.09488 -0.05031,-0.09571 -0.04946,-0.09652 -0.04863,-0.09732 -0.04781,-0.0981 -0.047,-0.09887 -0.04622,-0.09962 -0.04545,-0.100359 -0.04469,-0.101084 -0.04396,-0.101793 -0.04324,-0.102488 -0.04254,-0.103167 -0.04185,-0.103832 -0.04118,-0.104482 -0.04053,-0.105116 -0.0399,-0.105736 -0.03929,-0.10634 -0.03869,-0.10693 -0.03811,-0.107504 -0.03754,-0.108063 -0.037,-0.108608 -0.03647,-0.109137 -0.03596,-0.109652 -0.03547,-0.11015 -0.03499,-0.110634 -0.03454,-0.111104 -0.0341,-0.111557 -0.03368,-0.111996 -0.03327,-0.11242 -0.03289,-0.112829 -0.03252,-0.113223 -0.03216,-0.113602 -0.03183,-0.113966 -0.03151,-0.114315 -0.03121,-0.114649 -0.03093,-0.114969 -0.03067,-0.115273 -0.03042,-0.115563 -0.03019,-0.115839 -0.02998,-0.116099 -0.02978,-0.116344 -0.0296,-0.116577 -0.02944,-0.116793 -0.02929,-0.116995 -0.02917,-0.117183 -0.02905,-0.117357 -0.02896,-0.117517 -0.02888,-0.117661 -0.02882,-0.117792 -0.02877,-0.117909 -0.02874,-0.118012 -0.02873,-0.118101 -0.02873,-0.118175 -0.02875,-0.118237 -0.02878,-0.118284 -0.02883,-0.118318 -0.02889,-0.118339 -0.02897,-0.118345 -0.02907,-0.118338 -0.02918,-0.118318 -0.0293,-0.118286 -0.02944,-0.118238 -0.0296,-0.11818 -0.02976,-0.118107 -0.02995,-0.118023 -0.03014,-0.117924 -0.03036,-0.117814 -0.03058,-0.117691 -0.03082,-0.117556 -0.03107,-0.117407 -0.03134,-0.117248 -0.03162,-0.117076 -0.03191,-0.116892 -0.03221,-0.116695 -0.03253,-0.116488 -0.03286,-0.116269 -0.0332,-0.116038 -0.03355,-0.115795 -0.03392,-0.115542 -0.0343,-0.115276 -0.03469,-0.115001 -0.03509,-0.114715 -0.0355,-0.114416 -0.03592,-0.114108 -0.03635,-0.113789 -0.0368,-0.11346 -0.03725,-0.113121 -0.03771,-0.11277 -0.03819,-0.112411 -0.03867,-0.112041 -0.03917,-0.111662 -0.03967,-0.111272 -0.04018,-0.110874 -0.0407,-0.110466 -0.04123,-0.110048 -0.04177,-0.109622 -0.04231,-0.109187 -0.04287,-0.108743 -0.04343,-0.10829 -0.044,-0.107829 -0.04458,-0.107359 -0.04516,-0.106882 -0.04575,-0.106395 -0.04635,-0.105901 -0.04696,-0.1054 -0.04757,-0.10489 -0.04818,-0.104373 -0.04881,-0.103849 -0.04944,-0.103317 -0.05007,-0.102779 -0.05071,-0.102233 -0.05135,-0.10168 -0.052,-0.101122 -0.05265,-0.100556 -0.05331,-0.099984 -0.05397,-0.099407 -0.05464,-0.098822 -0.05531,-0.098232 -0.05598,-0.097636 -0.05666,-0.097036 -0.05733,-0.096428 -0.05801,-0.095816 -0.0587,-0.0952 -0.05939,-0.094577 -0.06007,-0.09395 -0.06076,-0.093318 -0.06145,-0.092682 -0.06215,-0.092041 -0.06284,-0.091396 -0.06354,-0.090748 -0.06423,-0.090094 -0.06493,-0.089438 -0.06563,-0.088777 -0.06632,-0.088113 -0.06702,-0.087447 -0.06772,-0.086775 -0.06841,-0.086102 -0.06911,-0.085426 -0.0698,-0.084746 -0.07049,-0.084065 -0.07118,-0.08338 -0.07187,-0.082694 -0.07256,-0.082004 -0.07325,-0.081314 -0.07393,-0.080622 -0.07461,-0.079926 -0.07529,-0.079231 -0.07596,-0.078533 -0.07664,-0.077834 -0.0773,-0.077135 -0.07797,-0.076433 -0.07863,-0.075731 -0.07929,-0.075028 -0.07994,-0.074325 -0.08059,-0.073621 -0.08124,-0.072916 -0.08188,-0.072212 -0.08251,-0.071508 -0.08314,-0.070803 -0.08377,-0.070099 -0.08439,-0.069395 -0.085,-0.068691 -0.08561,-0.067988 -0.08621,-0.067286 -0.0868,-0.066585 -0.08739,-0.065884 -0.08798,-0.065184 -0.08855,-0.064487 -0.08912,-0.06379 -0.08968,-0.063094 -0.09024,-0.0624 -0.09079,-0.061709 -0.09133,-0.061018 -0.09186,-0.060329 -0.09238,-0.059644 -0.0929,-0.058959 -0.09341,-0.058278 -0.09391,-0.057598 -0.0944,-0.056921 -0.09488,-0.056247 -0.09535,-0.055575 -0.09582,-0.054907 -0.09627,-0.054241 -0.09672,-0.053579 -0.09715,-0.052918 -0.09758,-0.052263 -0.098,-0.05161 -0.09841,-0.05096 -0.0988,-0.050315 -0.09919,-0.049672 -0.09957,-0.049034 -0.09994,-0.0484 -0.100292,-0.047769 -0.100637,-0.047142 -0.100973,-0.04652 -0.101296,-0.045902 -0.10161,-0.045288 -0.101912,-0.044679 -0.102203,-0.044073 -0.102482,-0.043474 -0.10275,-0.042878 -0.103007,-0.042286 -0.103252,-0.041701 -0.103485,-0.041119 -0.103707,-0.040543 -0.103916,-0.039972 -0.104114,-0.039406 -0.104299,-0.038845 -0.104473,-0.038289 -0.104633,-0.037739 -0.104783,-0.037194 -0.104918,-0.036654 -0.105042,-0.036121 -0.105153,-0.035592 -0.105252,-0.03507 -0.105338,-0.034552 -0.10541,-0.034041 -0.10547,-0.033536 -0.105518,-0.033037 -0.105551,-0.032542 -0.105573,-0.032056 -0.10558,-0.031573 -0.105576,-0.031098 -0.105557,-0.030629 -0.105525,-0.030165 -0.10548,-0.029709 -0.105422,-0.029258 -0.10535,-0.028813 -0.105264,-0.028375 -0.105166,-0.027944 -0.105054,-0.027518 -0.104928,-0.027099 -0.104789,-0.026687 -0.104636,-0.026281 -0.104469,-0.025882 -0.104289,-0.025488 -0.104095,-0.025103 -0.103887,-0.024723 -0.103666,-0.024349 -0.103431,-0.023984 -0.103182,-0.023623 -0.10292,-0.023271 -0.102643,-0.022924 -0.102354,-0.022585 -0.10205,-0.022252 -0.101732,-0.021926 -0.101401,-0.021606 -0.101056,-0.021294 -0.100697,-0.020988 -0.100325,-0.020689 -0.09994,-0.020396 -0.09954,-0.020111 -0.09913,-0.019832 -0.0987,-0.01956 -0.09826,-0.019295 -0.0978,-0.019036 -0.09733,-0.018785 -0.09685,-0.01854 -0.09636,-0.018301 -0.09585,-0.01807 -0.09533,-0.017845 -0.09479,-0.017627 -0.09424,-0.017416 -0.09368,-0.017211 -0.09311,-0.017013 -0.09252,-0.016821 -0.09192,-0.016637 -0.0913,-0.016459 -0.09067,-0.016286 -0.09003,-0.016122 -0.08938,-0.015963 -0.08871,-0.015811 -0.08803,-0.015666 -0.08734,-0.015526 -0.08663,-0.015394 -0.08591,-0.015267 -0.08518,-0.015147 -0.08444,-0.015033 -0.08369,-0.014926 -0.08292,-0.014824 -0.08214,-0.014729 -0.08134,-0.01464 -0.08054,-0.014557 -0.07972,-0.014481 -0.07889,-0.014409 -0.07805,-0.014345 -0.0772,-0.014286 -0.07634,-0.014232 -0.07546,-0.014186 -0.07457,-0.014143 -0.07367,-0.014108 -0.07276,-0.014078 -0.07184,-0.014053 -0.07091,-0.014035 -0.06997,-0.01402 -0.06901,-0.014013 -0.06805,-0.01401 -0.06707,-0.014013 -0.06609,-0.01402 -0.06509,-0.014034 -0.06408,-0.014052 -0.06306,-0.014075 -0.06203,-0.014104 -0.061,-0.014136 -0.05995,-0.014175 -0.05889,-0.014218 -0.05782,-0.014265 -0.05675,-0.014318 -0.05566,-0.014375 -0.05456,-0.014436 -0.05346,-0.014502 -0.05234,-0.014572 -0.05122,-0.014647 -0.05009,-0.014725 -0.04895,-0.014809 -0.0478,-0.014895 -0.04664,-0.014987 -0.04548,-0.015082 -0.0443,-0.01518 -0.04312,-0.015283 -0.04193,-0.015389 -0.04073,-0.0155 -0.03953,-0.015612 -0.03832,-0.01573 -0.0371,-0.01585 -0.03587,-0.015973 -0.03464,-0.0161 -0.03339,-0.01623 -0.03215,-0.016362 -0.03089,-0.016499 -0.02963,-0.016637 -0.02836,-0.016778 -0.02709,-0.016923 -0.02581,-0.01707 -0.02453,-0.017218 -0.02323,-0.017371 -0.02194,-0.017524 -0.02063,-0.017681 -0.01933,-0.017839 -0.01801,-0.017999 -0.0167,-0.018162 -0.01538,-0.018327 -0.01405,-0.018492 -0.01272,-0.018661 -0.01138,-0.018829 -0.01004,-0.019001 -0.0087,-0.019174 -0.0074,-0.019347 -0.006,-0.019522 -0.0046,-0.019699 -0.0033,-0.019876 -0.0019,-0.020054 -5.6e-4,-0.020233 8.08e-4,-0.020414 0.0022,-0.020594 0.0036,-0.020775 0.0049,-0.020957 0.0063,-0.02114 0.0077,-0.021322 0.0091,-0.021505 0.01045,-0.021688 0.01183,-0.021871 0.01322,-0.022054 0.01461,-0.022237 0.016,-0.022419 0.01739,-0.022602 0.01878,-0.022784 0.02017,-0.022966 0.02156,-0.023147 0.02295,-0.023326 0.02435,-0.023507 0.02574,-0.023685 0.02713,-0.023862 0.02853,-0.02404 0.02992,-0.024215 0.03131,-0.024389 0.0327,-0.024563 0.03409,-0.024734 0.03548,-0.024904 0.03687,-0.025073 0.03825,-0.02524 0.03964,-0.025406 0.04102,-0.025568 0.0424,-0.025731 0.04378,-0.02589 0.04516,-0.026047 0.04653,-0.026203 0.0479,-0.026356 0.04927,-0.026506 0.05064,-0.026655 0.052,-0.026801 0.05336,-0.026944 0.05472,-0.027085 0.05607,-0.027222 0.05743,-0.027358 0.05877,-0.027489 0.06011,-0.027619 0.06145,-0.027746 0.06279,-0.027868 0.06412,-0.027988 0.06545,-0.028104 0.06677,-0.028218 0.06808,-0.028327 0.0694,-0.028434 0.07071,-0.028536 0.07201,-0.028635 0.0733,-0.02873 0.0746,-0.028822 0.07588,-0.02891 0.07716,-0.02899 0.07844,-0.02907 0.07971,-0.02915 0.08097,-0.02922 0.08222,-0.02929 0.08347,-0.02935 0.08472,-0.02941 0.08595,-0.02946 0.08719,-0.02951 0.08841,-0.02956 0.08962,-0.0296 0.09083,-0.02963 0.09204,-0.02967 0.09323,-0.02969 0.09442,-0.02972 0.0956,-0.02973 0.09677,-0.02975 0.09793,-0.02975 0.09909,-0.02975 0.100241,-0.02975 0.101381,-0.02974 0.102513,-0.02973 0.103637,-0.02971 0.104753,-0.02969 0.105859,-0.02966 0.106957,-0.02962 0.108046,-0.02959 0.109126,-0.02954 0.110198,-0.02949 0.11126,-0.02943 0.112313,-0.02937 0.113357,-0.02931 0.114392,-0.02923 0.115416,-0.02915 0.116432,-0.02907 0.117437,-0.02898 0.118433,-0.02888 0.11942,-0.02878 0.120396,-0.02868 0.121362,-0.02856 0.122318,-0.02844 0.123264,-0.02832 0.124199,-0.02819 0.125125,-0.02805 0.126041,-0.02791 0.126944,-0.02776 0.127839,-0.02761 0.128722,-0.02745 0.129594,-0.02728 0.130457,-0.02711 0.131308,-0.02693 0.132148,-0.02674 0.132977,-0.02655 0.133795,-0.02636 0.134603,-0.02615 0.135399,-0.02594 0.136183,-0.02573 0.136957,-0.02551 0.13772,-0.02528 0.13847,-0.02504 0.139211,-0.0248 0.139938,-0.02456 0.140655,-0.02431 0.141361,-0.02405 0.142054,-0.02378 0.142735,-0.02351 0.143407,-0.02324 0.144065,-0.02295 0.144712,-0.02266 0.145347,-0.02237 0.145971,-0.02207 0.146582,-0.02176 0.147182,-0.02145 0.14777,-0.02113 0.148346,-0.0208 0.14891,-0.02047 0.149462,-0.02013 0.150003,-0.01979 0.150531,-0.01944 0.151047,-0.01909 0.151552,-0.01873 0.152043,-0.01836 0.152524,-0.01799 0.152993,-0.01761 0.153448,-0.01722 0.153893,-0.01683 0.154325,-0.01644 0.154744,-0.01604 0.155153,-0.01563 0.155549,-0.01522 0.155933,-0.0148 0.156305,-0.01437 0.156665,-0.01394 0.157013,-0.01351 0.157349,-0.01307 0.157673,-0.01262 0.157984,-0.01217 0.158285,-0.01172 0.158573,-0.01125 0.158849,-0.01079 0.159113,-0.01031 0.159366,-0.0098 0.159606,-0.0094 0.159835,-0.0089 0.160052,-0.0084 0.160258,-0.0079 0.16045,-0.0074 0.160633,-0.0069 0.160803,-0.0064 0.160961,-0.0058 0.161108,-0.0053 0.161243,-0.0048 0.161368,-0.0043 0.161479,-0.0037 0.161581,-0.0032 0.161671,-0.0026 0.161748,-0.0021 0.161816,-0.0015 0.161872,-9.9e-4 0.161916,-4.3e-4 0.16195,1.34e-4 0.161972,7.02e-4 0.161984,0.0013 0.161984,0.0019 0.161974,0.0024 0.161953,0.003 0.16192,0.0036 0.161879,0.0042 0.161825,0.0048 0.161761,0.0054 0.161687,0.006 0.161602,0.0066 0.161507,0.0072 0.161402,0.0078 0.161286,0.0084 0.161161,0.009 0.161025,0.0096 0.160879,0.01027 0.160723,0.01089 0.160558,0.01151 0.160383,0.01214 0.160198,0.01277 0.160004,0.01341 0.159799,0.01404 0.159587,0.01468 0.159364,0.01532 0.159132,0.01596 0.158891,0.0166 0.158641,0.01725 0.158382,0.01789 0.158114,0.01854 0.157838,0.01919 0.157552,0.01984 0.157258,0.0205 0.156957,0.02115 0.156645,0.0218 0.156326,0.02246 0.155999,0.02312 0.155664,0.02377 0.15532,0.02443 0.15497,0.02509 0.15461,0.02575 0.154243,0.02641 0.153869,0.02707 0.153488,0.02773 0.153098,0.02839 0.152701,0.02905 0.152298,0.02971 0.151888,0.03037 0.15147,0.03103 0.151045,0.03169 0.150614,0.03235 0.150176,0.03301 0.149732,0.03367 0.14928,0.03433 0.148824,0.03499 0.14836,0.03564 0.147891,0.0363 0.147416,0.03695 0.146934,0.0376 0.146447,0.03825 0.145954,0.0389 0.145456,0.03955 0.144952,0.0402 0.144443,0.04084 0.143929,0.04148 0.14341,0.04212 0.142885,0.04276 0.142356,0.0434 0.141822,0.04403 0.141284,0.04467 0.14074,0.0453 0.140193,0.04592 0.13964,0.04655 0.139085,0.04717 0.138524,0.04779 0.137959,0.0484 0.137392,0.04902 0.13682,0.04962 0.136243,0.05023 0.135665,0.05083 0.135082,0.05143 0.134496,0.05203 0.133907,0.05262 0.133314,0.05321 0.132719,0.05379 0.13212,0.05437 0.131519,0.05495 0.130915,0.05552 0.130309,0.05608 0.129699,0.056648 0.129088,0.057207 0.128473,0.05776 0.127858,0.058309 0.12724,0.058853 0.126619,0.059392 0.125996,0.059925 0.125373,0.060455 0.124747,0.060978 0.124119,0.061496 0.123491,0.062009 0.122859,0.062516 0.122228,0.063017 0.121594,0.063513 0.12096,0.064003 0.120324,0.064486 0.119687,0.064964 0.11905,0.065435 0.118411,0.0659 0.117771,0.066359 0.117132,0.066812 0.11649,0.067256 0.115849,0.067696 0.115207,0.068127 0.114564,0.068553 0.113922,0.06897 0.113278,0.069382 0.112634,0.069785 0.111991,0.070182 0.111347,0.07057 0.110703,0.070952 0.110059,0.071325 0.109415,0.071691 0.108771,0.072049 0.108127,0.0724 0.107483,0.072741 0.10684,0.073075 0.106196,0.073401 0.105553,0.073717 0.104911,0.074027 0.104268,0.074326 0.103626,0.074617 0.102985,0.0749 0.102343,0.075174 0.101702,0.075438 0.101062,0.075694 0.100423,0.075939 0.099782,0.076176 0.099144,0.076404 0.098506,0.076621 0.097867,0.076829 0.09723,0.077027 0.096593,0.077216 0.095957,0.077393 0.095321,0.077562 0.094685,0.077719 0.094051,0.077867 0.093416,0.078003 0.092781,0.07813 0.092148,0.078246 0.091514,0.07835 0.090882,0.078443 0.090248,0.078527 0.089616,0.078597 0.088983,0.078658 0.088351,0.078706 0.087719,0.078743 0.087087,0.078769 0.086454,0.078782 0.085823,0.078783 0.085189,0.078772 0.084557,0.078749 0.083924,0.078714 0.08329,0.078667 0.082657,0.078605 0.082022,0.078532 0.081386,0.078446 0.080751,0.078347 0.080113,0.078234 0.079476,0.078108 0.078836,0.077968 0.078196,0.077815 0.077554,0.077649 0.076911,0.077467 0.076266,0.077272 0.075619,0.077062 0.074971,0.076839 0.074319,0.0766 0.073667,0.076347 0.073012,0.076078 0.072353,0.075795 0.071692,0.075495 0.071029,0.075182 0.070362,0.074851 0.069692,0.074506 0.069018,0.074143 0.068341,0.073765 0.067659,0.073371 0.066974,0.072959 0.066284,0.07253 0.065589,0.072086 0.06489,0.071622 0.064186,0.071143 0.063476,0.070644 0.06276,0.070129 0.06204,0.069595 0.061312,0.069043 0.060578,0.068472 0.059839,0.067882 0.05909,0.067272 0.058337,0.066645 0.057574,0.065996 0.056804,0.065329 0.056027,0.064641 0.055239,0.063932 0.054444,0.063203 0.05364,0.062453 0.052825,0.061681 0.052001,0.060889 0.051167,0.060074 0.050322,0.059237 0.049466,0.058377 0.048599,0.057495 0.04772,0.05659 0.046829,0.055661 0.045924,0.054708 0.045009,0.053732 0.044077,0.052731 0.043134,0.051704 0.042176,0.050653 0.041202,0.049577 0.040214,0.048474 0.03921,0.047344 0.038189,0.046189 0.037153,0.045006 0.036099,0.043795 0.035027,0.042556 0.033937,0.04129 0.032829,0.039994 0.0317,0.038668 0.030554,0.037314 0.029385,0.035929 0.028196,0.034512 0.026986,0.033066 0.025753,0.031587 0.024499,0.030076 0.02322,0.028532 0.021918,0.026956 0.020591,0.025345 0.019239,0.0237 0.017862,0.02202 0.016457,0.020305 0.015026,0.018553 0.013568,0.016765 0.012079,0.01494 0.010563,0.013077 0.009016,0.011175 0.007439,0.009234 0.005831,0.007254 0.004189,0.005232 0.002516,0.003171"
       id="path6"
       style="fill:none;fill-opacity:1;stroke:#000000;stroke-width:0.02292802;stroke-miterlimit:4;stroke-dasharray:none;stroke-opacity:1"
       inkscape:connector-curvature="0" />
  </g>
  <circle
     style="fill:none;fill-opacity:1;fill-rule:evenodd;stroke:#000000;stroke-width:0.07086614;stroke-miterlimit:4;stroke-dasharray:none;stroke-opacity:1"
     id="path4135"
     cx="155.10925"
     cy="791.66766"
     r="79.666962" />
</svg>
