<?xml version="1.0" encoding="UTF-8" standalone="no"?>
<!-- Created with Inkscape (http://www.inkscape.org/) -->

<svg
   xmlns:dc="http://purl.org/dc/elements/1.1/"
   xmlns:cc="http://creativecommons.org/ns#"
   xmlns:rdf="http://www.w3.org/1999/02/22-rdf-syntax-ns#"
   xmlns:svg="http://www.w3.org/2000/svg"
   xmlns="http://www.w3.org/2000/svg"
   xmlns:sodipodi="http://sodipodi.sourceforge.net/DTD/sodipodi-0.dtd"
   xmlns:inkscape="http://www.inkscape.org/namespaces/inkscape"
   width="210mm"
   height="297mm"
   viewBox="0 0 210 297"
   version="1.1"
   id="svg5472"
   inkscape:version="0.92+devel "
   sodipodi:docname="Expanded_Assembly_Outer.svg">
  <sodipodi:namedview
     id="base"
     pagecolor="#ffffff"
     bordercolor="#666666"
     borderopacity="1.0"
     inkscape:pageopacity="0.0"
     inkscape:pageshadow="2"
     inkscape:zoom="7.9195959"
     inkscape:cx="156.63373"
     inkscape:cy="69.098497"
     inkscape:document-units="mm"
     inkscape:current-layer="layer2"
     inkscape:document-rotation="0"
     showgrid="false"
     showguides="true"
     inkscape:window-width="1920"
     inkscape:window-height="1017"
     inkscape:window-x="-8"
     inkscape:window-y="-8"
     inkscape:window-maximized="1">
    <inkscape:grid
       id="grid6041"
       type="xygrid" />
  </sodipodi:namedview>
  <defs
     id="defs5466">
    <inkscape:path-effect
       effect="fillet_chamfer"
       id="path-effect4278"
       is_visible="true"
       fillet_chamfer_values=""
       method="auto"
       radius="0"
       chamfer_steps="1"
       helper_size="0"
       flexible="false"
       use_knot_distance="false"
       ignore_radius_0="false"
       only_selected="false"
       hide_knots="false" />
    <inkscape:path-effect
       hide_knots="false"
       only_selected="false"
       ignore_radius_0="false"
       use_knot_distance="false"
       flexible="false"
       helper_size="0"
       chamfer_steps="1"
       radius="3"
       method="auto"
       fillet_chamfer_values="0,0 | 0,1 | 0,1 | 0,1 | 0,1 | 0,1 | -3,1 | 0,1 | 0,1 | 0,1 | 0,1 | 0,1 | 0,1 | 0,1 | 0,1 | 0,1 | 0,1 | 0,1 | 0,1 | 0,1 | 0,1 | 0,1 | 0,1 | 0,1 | 0,1 | 0,1 | 0,1 | 0,1 | -3,1 | 0,1 | 0,1 | 0,1 | 0,1 | 0,1 | 0,1 | 0,1 | 0,1 | 0,1 | 0,1 | 0,1 | -3,1 | 0,1 | -1,1 | 0,1 | -1,1 | 0,1 | -3,1 | 0,1 | -3,1 | 0,1 | 0,1 | 0,1 | 0,1 | 0,1 | 0,1 | 0,1 | 0,1 | 0,1 | 0,1 | 0,1 | 0,1 | 0,1 | 0,1 | 0,1 | 0,1 | 0,1 | 0,1 | 0,1 | 0,1 | 0,1 | -2.9707408,1 | 0,1 | 0,1 | 0,1 | 0,1 | -0.0093497633,1 | 0,1 | 0,1 | 0,1 | 0,1 | 0,1 | 0,1 | 0,1 | 0,1 | 0,1 | 0,1 | 0,1 | 0,1 | 0,1 | -0.00013836795,1 | -0.0001406093,1 | 0,1 | 0,0 | 0,1 | 0,1 | -3,1 | 0,1 | 0,1 | 0,1 | 0,1 | -3,1 | 0,1 | 0,1 | 0,1 | -3,1 | 0,1 | 0,1 | 0,1 | 0,1 | 0,1 | -3,1 | 0,1 | -3,1 | 0,1 | 0,1 | 0,1 | 0,1 | 0,1 | -3,1 | 0,1 | -3,1 | 0,1 | 0,1 | 0,1 | 0,1 | 0,1 | 0,1 | 0,1"
       is_visible="true"
       id="path-effect4316"
       effect="fillet_chamfer" />
    <inkscape:path-effect
       effect="fillet_chamfer"
       id="path-effect4294"
       is_visible="true"
       fillet_chamfer_values="0,0 | 0,1 | 0,1 | 0,1 | 0,1 | 0,1 | 0,1 | 0,1 | 0,1 | 0,1 | 0,1 | 0,1 | 0,1 | 0,1 | 0,1 | 0,1 | 0,1 | 0,1 | 0,1 | 0,1 | 0,1 | 0,1 | 0,1 | 0,1 | 0,1 | 0,1 | 0,1 | 0,1 | 0,1 | 0,1 | 0,1 | 0,1 | 0,1 | 0,1 | 0,1 | 0,1 | 0,1 | 0,1 | 0,1 | 0,1 | 0,1 | 0,1 | 0,1 | 0,1 | 0,1 | 0,1 | 0,1 | 0,1 | 0,1 | 0,1 | 0,1 | 0,1 | 0,1 | 0,1 | 0,1 | 0,1 | 0,1 | 0,1 | 0,1 | 0,1 | 0,1 | 0,1 | 0,1 | 0,1 | 0,1 | 0,1 | 0,1 | 0,1 | 0,1 | 0,1 | 0,1 | 0,1 | 0,1 | 0,1 | 0,1 | 0,1 | 0,1 | 0,1 | 0,1 | 0,1 | 0,1 | 0,1 | 0,1 | 0,1 | 0,1 | 0,1 | 0,1 | 0,1 | 0,1 | 0,1 | 0,1 | 0,0 | 0,1 | 0,1 | 0,1 | 0,1 | 0,1 | 0,1 | 0,1 | 0,1 | 0,1 | 0,1 | 0,1 | 0,1 | 0,1 | 0,1 | 0,1 | 0,1 | 0,1 | 0,1 | 0,1 | 0,1 | 0,1 | 0,1 | 0,1 | 0,1 | 0,1 | 0,1 | 0,1 | 0,1 | 0,1 | 0,1 | 0,1 | 0,1"
       method="auto"
       radius="0"
       chamfer_steps="1"
       helper_size="0"
       flexible="false"
       use_knot_distance="false"
       ignore_radius_0="false"
       only_selected="true"
       hide_knots="false" />
  </defs>
  <metadata
     id="metadata5469">
    <rdf:RDF>
      <cc:Work
         rdf:about="">
        <dc:format>image/svg+xml</dc:format>
        <dc:type
           rdf:resource="http://purl.org/dc/dcmitype/StillImage" />
        <dc:title></dc:title>
      </cc:Work>
    </rdf:RDF>
  </metadata>
  <g
     id="layer1"
     inkscape:groupmode="layer"
     inkscape:label="Layer 1">
    <rect
       y="224.50903"
       x="0.0099999998"
       height="72.480965"
       width="72.480957"
       id="rect4136-3"
       style="fill:none;fill-opacity:1;fill-rule:evenodd;stroke:#050000;stroke-width:0.02;stroke-miterlimit:4;stroke-dasharray:none;stroke-opacity:1" />
    <rect
       style="fill:#ff0000;fill-opacity:1;fill-rule:evenodd;stroke:#000000;stroke-width:0.02;stroke-miterlimit:4;stroke-dasharray:none;stroke-opacity:1"
       id="rect6505"
       width="69.944366"
       height="69.944366"
       x="1.152818"
       y="225.90282" />
  </g>
  <g
     inkscape:label="Maze"
     id="layer2"
     inkscape:groupmode="layer">
    <path
       style="fill:#ffffff;fill-opacity:1;fill-rule:evenodd;stroke:#000000;stroke-width:0.07559055;stroke-miterlimit:4;stroke-dasharray:none;stroke-opacity:1"
       d="m 12.349609,888.86719 v 6.62304 11.1211 h 14.023438 14.023437 13.769532 13.769531 v 9.98633 0.0703 l -0.05469,8.92578 -13.882812,0.13672 -13.882813,0.13672 -13.882812,0.13476 -2.654297,0.0274 c -6.21883,0.0604 -11.228429,5.11877 -11.228516,11.33789 v 0.42578 6.09765 h 14.009766 14.009766 14.009765 14.009766 v 7.64063 7.64258 H 54.634766 40.878906 v 6.11328 11.20703 h 18.509766 18.509766 18.509765 18.511717 18.50977 18.50976 v 9.16992 14.26563 14.26371 2.9257 c 7.3e-4,6.2631 -5.07671,11.3406 -11.33984,11.3399 h -2.92578 -2.92578 c -6.26159,4e-4 -11.33751,5.0763 -11.33789,11.3379 v 2.416 2.334 c -1.3e-4,2.0872 -1.6921,3.7792 -3.7793,3.7793 h -10.48633 -2.58789 c -2.0872,-10e-5 -3.77917,-1.6921 -3.7793,-3.7793 v -2.334 -7.6406 c -3.8e-4,-6.2624 -5.077489,-11.3386 -11.33984,-11.3379 h -3.689453 v -5.2188 -10.4453 -10.44335 -10.44336 H 75.648438 63.548828 46.482422 29.416016 12.349609 v 6.11329 0.6621 c 3.66e-4,6.26236 5.077484,11.33862 11.339844,11.33792 h 2.669922 14.009766 14.009765 14.009766 v 8.8867 9.5508 H 54.378906 40.369141 26.359375 12.349609 v 11.3379 6.1132 h 14.009766 14.009766 14.009765 14.009766 v 7.6407 7.6426 H 54.634766 40.878906 v 6.1132 1.9102 c 3.77e-4,6.2624 5.077492,11.3386 11.339844,11.3379 h 9.292969 20.632812 20.632809 17.17774 3.45312 v -0 l -0.12695,0 h -0.17578 0.30273 v 2.2051 1.2949 2.0176 1.6093 h 13.75586 13.75586 13.75391 2.41797 c 6.26159,-4e-4 11.33751,-5.0763 11.33789,-11.3379 v -2.416 -2.4179 c 3.8e-4,-6.2616 5.0763,-11.3375 11.33789,-11.3379 h 2.58594 13.92578 13.92578 13.92383 13.92578 2.58593 c 6.26159,-4e-4 11.33752,-5.0763 11.3379,-11.3379 v -1.9082 -1.9063 c -3.8e-4,-6.2616 -5.07631,-11.3375 -11.3379,-11.3379 h -2.58593 -13.92578 -13.92383 -13.92578 -13.92578 -2.58594 c -6.26233,-4e-4 -11.33856,-5.0775 -11.33789,-11.3398 v -5.9824 -17.32035 -17.32226 -5.98242 c -3.8e-4,-6.26159 -5.0763,-11.33751 -11.33789,-11.33789 h -2.58789 -13.92383 -13.92578 -13.92383 -2.58985 c -6.26235,-3.8e-4 -11.33859,-5.0775 -11.33789,-11.33985 v -2.36914 -19.60742 c -3.45247,0 -6.92988,-0.004 -10.400386,-0.004 -3.48409,0 -6.962151,0.007 -10.400391,0.0332 v -5.30274 -0.002 L 88,910.00977 V 899.43945 888.86719 H 75.896484 63.792969 46.462891 29.40625 Z"
       transform="scale(0.26458333)"
       id="path6478"
       inkscape:connector-curvature="0"
       sodipodi:nodetypes="ccccccccccccccccccccccccccccccccccccccccccccccccccccccccccccccccccccccccccccccccccccccccccccccccccccccccccccccccccccccccccccccccccccccccccccccccccccc"
       inkscape:path-effect="#path-effect4278"
       inkscape:original-d="m 12.349609,888.86719 v 6.62304 11.1211 h 14.023438 14.023437 13.769532 13.769531 v 9.98633 0.0703 l -0.05469,8.92578 -13.882812,0.13672 -13.882813,0.13672 -13.882812,0.13476 -2.654297,0.0274 c -6.21883,0.0604 -11.228429,5.11877 -11.228516,11.33789 v 0.42578 6.09765 h 14.009766 14.009766 14.009765 14.009766 v 7.64063 7.64258 H 54.634766 40.878906 v 6.11328 11.20703 h 18.509766 18.509766 18.509765 18.511717 18.50977 18.50976 v 9.16992 14.26563 14.26371 2.9257 c 7.3e-4,6.2631 -5.07671,11.3406 -11.33984,11.3399 h -2.92578 -2.92578 c -6.26159,4e-4 -11.33751,5.0763 -11.33789,11.3379 v 2.416 2.334 c -1.3e-4,2.0872 -1.6921,3.7792 -3.7793,3.7793 h -10.48633 -2.58789 c -2.0872,-10e-5 -3.77917,-1.6921 -3.7793,-3.7793 v -2.334 -7.6406 c -3.8e-4,-6.2624 -5.077489,-11.3386 -11.33984,-11.3379 h -3.689453 v -5.2188 -10.4453 -10.44335 -10.44336 H 75.648438 63.548828 46.482422 29.416016 12.349609 v 6.11329 0.6621 c 3.66e-4,6.26236 5.077484,11.33862 11.339844,11.33792 h 2.669922 14.009766 14.009765 14.009766 v 8.8867 9.5508 H 54.378906 40.369141 26.359375 12.349609 v 11.3379 6.1132 h 14.009766 14.009766 14.009765 14.009766 v 7.6407 7.6426 H 54.634766 40.878906 v 6.1132 1.9102 c 3.77e-4,6.2624 5.077492,11.3386 11.339844,11.3379 h 9.292969 20.632812 20.632809 17.17774 3.45312 v -0 l -0.12695,0 h -0.17578 0.30273 v 2.2051 1.2949 2.0176 1.6093 h 13.75586 13.75586 13.75391 2.41797 c 6.26159,-4e-4 11.33751,-5.0763 11.33789,-11.3379 v -2.416 -2.4179 c 3.8e-4,-6.2616 5.0763,-11.3375 11.33789,-11.3379 h 2.58594 13.92578 13.92578 13.92383 13.92578 2.58593 c 6.26159,-4e-4 11.33752,-5.0763 11.3379,-11.3379 v -1.9082 -1.9063 c -3.8e-4,-6.2616 -5.07631,-11.3375 -11.3379,-11.3379 h -2.58593 -13.92578 -13.92383 -13.92578 -13.92578 -2.58594 c -6.26233,-4e-4 -11.33856,-5.0775 -11.33789,-11.3398 v -5.9824 -17.32035 -17.32226 -5.98242 c -3.8e-4,-6.26159 -5.0763,-11.33751 -11.33789,-11.33789 h -2.58789 -13.92383 -13.92578 -13.92383 -2.58985 c -6.26235,-3.8e-4 -11.33859,-5.0775 -11.33789,-11.33985 v -2.36914 -19.60742 c -3.45247,0 -6.92988,-0.004 -10.400386,-0.004 -3.48409,0 -6.962151,0.007 -10.400391,0.0332 v -5.30274 -0.002 L 88,910.00977 V 899.43945 888.86719 H 75.896484 63.792969 46.462891 29.40625 Z" />
  </g>
</svg>
