<?xml version="1.0" encoding="UTF-8" standalone="no"?>
<!-- Created with Inkscape (http://www.inkscape.org/) -->

<svg
   xmlns:dc="http://purl.org/dc/elements/1.1/"
   xmlns:cc="http://creativecommons.org/ns#"
   xmlns:rdf="http://www.w3.org/1999/02/22-rdf-syntax-ns#"
   xmlns:svg="http://www.w3.org/2000/svg"
   xmlns="http://www.w3.org/2000/svg"
   xmlns:sodipodi="http://sodipodi.sourceforge.net/DTD/sodipodi-0.dtd"
   xmlns:inkscape="http://www.inkscape.org/namespaces/inkscape"
   width="210mm"
   height="297mm"
   viewBox="0 0 210 297"
   version="1.1"
   id="svg5472"
   inkscape:version="0.92+devel "
   sodipodi:docname="Expanded_Assembly_Outer.svg">
  <sodipodi:namedview
     id="base"
     pagecolor="#ffffff"
     bordercolor="#666666"
     borderopacity="1.0"
     inkscape:pageopacity="0.0"
     inkscape:pageshadow="2"
     inkscape:zoom="7.9195959"
     inkscape:cx="156.63373"
     inkscape:cy="69.098497"
     inkscape:document-units="mm"
     inkscape:current-layer="layer2"
     inkscape:document-rotation="0"
     showgrid="false"
     showguides="true"
     inkscape:window-width="1920"
     inkscape:window-height="1017"
     inkscape:window-x="-8"
     inkscape:window-y="-8"
     inkscape:window-maximized="1">
    <inkscape:grid
       id="grid6041"
       type="xygrid" />
  </sodipodi:namedview>
  <defs
     id="defs5466">
    <inkscape:path-effect
       hide_knots="false"
       only_selected="false"
       ignore_radius_0="false"
       use_knot_distance="false"
       flexible="false"
       helper_size="0"
       chamfer_steps="1"
       radius="3"
       method="auto"
       fillet_chamfer_values="0,0 | 0,1 | 0,1 | 0,1 | 0,1 | 0,1 | -3,1 | 0,1 | 0,1 | 0,1 | 0,1 | 0,1 | 0,1 | 0,1 | 0,1 | 0,1 | 0,1 | 0,1 | 0,1 | 0,1 | 0,1 | 0,1 | 0,1 | 0,1 | 0,1 | 0,1 | 0,1 | 0,1 | -3,1 | 0,1 | 0,1 | 0,1 | 0,1 | 0,1 | 0,1 | 0,1 | 0,1 | 0,1 | 0,1 | 0,1 | -3,1 | 0,1 | -1,1 | 0,1 | -1,1 | 0,1 | -3,1 | 0,1 | -3,1 | 0,1 | 0,1 | 0,1 | 0,1 | 0,1 | 0,1 | 0,1 | 0,1 | 0,1 | 0,1 | 0,1 | 0,1 | 0,1 | 0,1 | 0,1 | 0,1 | 0,1 | 0,1 | 0,1 | 0,1 | 0,1 | -2.9707408,1 | 0,1 | 0,1 | 0,1 | 0,1 | -0.0093497633,1 | 0,1 | 0,1 | 0,1 | 0,1 | 0,1 | 0,1 | 0,1 | 0,1 | 0,1 | 0,1 | 0,1 | 0,1 | 0,1 | -0.00013836795,1 | -0.0001406093,1 | 0,1 | 0,0 | 0,1 | 0,1 | -3,1 | 0,1 | 0,1 | 0,1 | 0,1 | -3,1 | 0,1 | 0,1 | 0,1 | -3,1 | 0,1 | 0,1 | 0,1 | 0,1 | 0,1 | -3,1 | 0,1 | -3,1 | 0,1 | 0,1 | 0,1 | 0,1 | 0,1 | -3,1 | 0,1 | -3,1 | 0,1 | 0,1 | 0,1 | 0,1 | 0,1"
       is_visible="true"
       id="path-effect4316"
       effect="fillet_chamfer" />
    <inkscape:path-effect
       effect="fillet_chamfer"
       id="path-effect4294"
       is_visible="true"
       fillet_chamfer_values="0,0 | 0,1 | 0,1 | 0,1 | 0,1 | 0,1 | 0,1 | 0,1 | 0,1 | 0,1 | 0,1 | 0,1 | 0,1 | 0,1 | 0,1 | 0,1 | 0,1 | 0,1 | 0,1 | 0,1 | 0,1 | 0,1 | 0,1 | 0,1 | 0,1 | 0,1 | 0,1 | 0,1 | 0,1 | 0,1 | 0,1 | 0,1 | 0,1 | 0,1 | 0,1 | 0,1 | 0,1 | 0,1 | 0,1 | 0,1 | 0,1 | 0,1 | 0,1 | 0,1 | 0,1 | 0,1 | 0,1 | 0,1 | 0,1 | 0,1 | 0,1 | 0,1 | 0,1 | 0,1 | 0,1 | 0,1 | 0,1 | 0,1 | 0,1 | 0,1 | 0,1 | 0,1 | 0,1 | 0,1 | 0,1 | 0,1 | 0,1 | 0,1 | 0,1 | 0,1 | 0,1 | 0,1 | 0,1 | 0,1 | 0,1 | 0,1 | 0,1 | 0,1 | 0,1 | 0,1 | 0,1 | 0,1 | 0,1 | 0,1 | 0,1 | 0,1 | 0,1 | 0,1 | 0,1 | 0,1 | 0,1 | 0,0 | 0,1 | 0,1 | 0,1 | 0,1 | 0,1 | 0,1 | 0,1 | 0,1 | 0,1 | 0,1 | 0,1 | 0,1 | 0,1 | 0,1 | 0,1 | 0,1 | 0,1 | 0,1 | 0,1 | 0,1 | 0,1 | 0,1 | 0,1 | 0,1 | 0,1 | 0,1 | 0,1 | 0,1 | 0,1 | 0,1 | 0,1 | 0,1"
       method="auto"
       radius="0"
       chamfer_steps="1"
       helper_size="0"
       flexible="false"
       use_knot_distance="false"
       ignore_radius_0="false"
       only_selected="true"
       hide_knots="false" />
  </defs>
  <metadata
     id="metadata5469">
    <rdf:RDF>
      <cc:Work
         rdf:about="">
        <dc:format>image/svg+xml</dc:format>
        <dc:type
           rdf:resource="http://purl.org/dc/dcmitype/StillImage" />
        <dc:title />
      </cc:Work>
    </rdf:RDF>
  </metadata>
  <g
     id="layer1"
     inkscape:groupmode="layer"
     inkscape:label="Layer 1">
    <rect
       y="224.50903"
       x="0.0099999998"
       height="72.480965"
       width="72.480957"
       id="rect4136-3"
       style="fill:none;fill-opacity:1;fill-rule:evenodd;stroke:#050000;stroke-width:0.02;stroke-miterlimit:4;stroke-dasharray:none;stroke-opacity:1" />
    <rect
       style="fill:#ff0000;fill-opacity:1;fill-rule:evenodd;stroke:#000000;stroke-width:0.02;stroke-miterlimit:4;stroke-dasharray:none;stroke-opacity:1"
       id="rect6505"
       width="69.944366"
       height="69.944366"
       x="1.152818"
       y="225.90282" />
  </g>
  <g
     inkscape:label="Maze"
     id="layer2"
     inkscape:groupmode="layer">
    <path
       inkscape:original-d="m 32.652166,284.51406 v 4.1e-4 H 31.738256 27.19294 21.734084 16.27504 10.815995 v -3.50528 -1.61752 h 3.639369 3.639363 v -2.02187 -2.02185 h -3.70676 -3.706759 -3.7067588 -3.706759 v -1.6175 -2.99976 h 3.706759 3.7067588 3.706759 3.70676 v -2.52666 -2.35155 h -3.70676 -3.706759 -3.7067588 -3.706759 v -3.17489 -1.6175 h 4.515504 4.5155058 4.51551 3.201256 3.201256 v 2.76323 2.76321 2.76321 1.38095 h 3.976218 v 5.02163 1.61751 h 1.685081 3.774145 v -1.61751 -3.63937 h 3.77416 3.774146 v -3.77415 -3.77415 -3.77415 -2.42633 H 35.303067 30.405682 25.508239 20.61083 15.713442 10.815995 v -2.96532 -1.61749 h 3.639369 3.639363 v -2.02188 -2.02185 h -3.70676 -3.706759 -3.7067588 -3.706759 v -1.61318 -3.08353 l 3.673062,-0.036 3.6730618,-0.036 3.673062,-0.036 3.673062,-0.036 0.01478,-2.37116 v -2.65151 H 14.331599 10.68848 6.9780182 3.2675532 v -2.94233 -1.75229 h 4.512775 4.5127738 4.585363 3.202553 3.20255 v 2.79692 2.79693 l 2.58e-4,2.79689 2.61e-4,1.40334 c 0.909701,-0.007 1.829711,-0.009 2.751543,-0.009 0.918239,1e-5 1.838284,0.001 2.751752,0.001 v 5.18801 3.62703 h 3.68488 3.684315 3.684285 3.68427 3.68432 v 4.58291 4.5829 4.5829 4.5829 h 3.68429 3.68427 3.68433 3.68429 3.68427 3.68431 v 3.50455 3.50458 h -3.68428 -3.68427 -3.68432 -3.68429 -3.68429 -3.68431 v 3.63937 3.63936 h -3.63935 -3.63937 -3.639359 -3.639364 v -0.95964 -0.92743"
       inkscape:path-effect="#path-effect4316"
       style="fill:#ffffff;fill-opacity:1;fill-rule:evenodd;stroke:#000000;stroke-width:0.02;stroke-miterlimit:4;stroke-dasharray:none;stroke-opacity:1"
       d="m 32.652166,284.51406 v 4.1e-4 H 31.738256 27.19294 21.734084 16.27504 13.815995 a 3,3 45 0 1 -3,-3 v -0.50528 -1.61752 h 3.639369 3.639363 v -2.02187 -2.02185 h -3.70676 -3.706759 -3.7067588 -3.706759 v -1.6175 -2.99976 h 3.706759 3.7067588 3.706759 3.70676 v -2.52666 -2.35155 h -3.70676 -3.706759 -3.7067588 -0.706759 a 3,3 45 0 1 -3,-3 v -0.17489 -1.6175 h 4.515504 4.5155058 4.51551 3.201256 3.201256 v 2.76323 2.76321 2.76321 1.38095 h 0.976218 a 3,3 45 0 1 3,3 v 2.02163 0.61751 a 1,1 45 0 0 1,1 h 0.685081 2.774145 a 1,1 135 0 0 1,-1 v -0.61751 -0.63937 a 3,3 135 0 1 3,-3 h 0.77416 0.774146 a 3,3 135 0 0 3,-3 v -0.77415 -3.77415 -3.77415 -2.42633 H 35.303067 30.405682 25.508239 20.61083 15.713442 10.815995 v -2.96532 -1.61749 h 3.639369 3.639363 v -2.02188 -2.02185 h -3.70676 -3.706759 -3.7067588 -3.706759 v -1.61318 -0.11279 a 3,3 134.71923 0 1 2.9705981,-2.99986 l 0.7024639,-0.007 3.6730618,-0.036 3.673062,-0.036 3.673062,-0.036 0.01472,-2.36181 5.8e-5,-0.0187 v -2.64216 H 14.331599 10.68848 6.9780182 3.2675532 v -2.94233 -1.75229 h 4.512775 4.5127738 4.585363 3.202553 3.20255 v 2.79692 2.79679 l 0,2.8e-4 2.58e-4,2.79661 0,2.8e-4 2.61e-4,1.4032 c 0.909701,-0.007 1.829711,-0.009 2.751543,-0.009 0.918239,1e-5 1.838284,0.001 2.751752,0.001 v 5.18801 0.62703 a 3,3 45 0 0 3,3 l 0.68488,0 h 3.684315 3.684285 3.68427 l 0.68432,0 a 3,3 45 0 1 3,3 v 1.58291 4.5829 4.5829 1.5829 a 3,3 45 0 0 3,3 h 0.68429 3.68427 3.68433 3.68429 3.68427 0.68431 a 3,3 45 0 1 3,3 v 0.50455 0.50458 a 3,3 135 0 1 -3,3 h -0.68428 -3.68427 -3.68432 -3.68429 -3.68429 -0.68431 a 3,3 135 0 0 -3,3 v 0.63937 0.63936 a 3,3 135 0 1 -3,3 h -0.63935 -3.63937 -3.639359 -3.639364 v -0.95964 -0.92743"
       id="path6478"
       inkscape:connector-curvature="0"
       sodipodi:nodetypes="cccccccccccccccccccccccccccccccsccccccccccccccccccccccccccccccccccccccccccccccccccccccccccccccccccccccccccccccccccccccccccccccc" />
  </g>
</svg>
