<?xml version="1.0" encoding="UTF-8" standalone="no"?>
<!-- Created with Inkscape (http://www.inkscape.org/) -->

<svg
   xmlns:dc="http://purl.org/dc/elements/1.1/"
   xmlns:cc="http://creativecommons.org/ns#"
   xmlns:rdf="http://www.w3.org/1999/02/22-rdf-syntax-ns#"
   xmlns:svg="http://www.w3.org/2000/svg"
   xmlns="http://www.w3.org/2000/svg"
   xmlns:sodipodi="http://sodipodi.sourceforge.net/DTD/sodipodi-0.dtd"
   xmlns:inkscape="http://www.inkscape.org/namespaces/inkscape"
   width="210mm"
   height="297mm"
   viewBox="0 0 210 297"
   version="1.1"
   id="svg4889"
   inkscape:version="0.92+devel "
   sodipodi:docname="Expanded_Assembly_Inner.svg">
  <defs
     id="defs4883">
    <inkscape:path-effect
       effect="fillet_chamfer"
       id="path-effect4832"
       is_visible="true"
       fillet_chamfer_values="0,0 | 0,1 | 0,1 | 0,1 | 0,1 | 0,1 | 0,1 | 0,1 | 0,1 | 0,1 | 0,1 | 0,1 | 0,1 | 0,0 | 0,1 | 0,1 | 0,1 | 0,1 | 0,1 | 0,1 | 0,1 | 0,1 | 0,1 | 0,1 | 0,1 | 0,1 | 0,1 | 0,1 | 0,1 | 0,1 | 0,1 | 0,1 | 0,1 | 0,1 | 0,1 | 0,1 | 0,1 | 0,1 | 0,1 | 0,1 | 0,1 | 0,1 | 0,1 | 0,1 | 0,1 | 0,1 | 0,1 | 0,1 | 0,1 | 0,1 | 0,1 | 0,1 | 0,1 | 0,1 | 0,1 | 0,1 | 0,1 | 0,1 | 0,1 | 0,1 | 0,1 | 0,1 | 0,1 | 0,1 | 0,0 | 0,1 | 0,1 | 0,1 | 0,1 | 0,1 | 0,1 | 0,1 | 0,1 | 0,1 | 0,1 | 0,1 | 0,1 | 0,1 | 0,1 | 0,1 | 0,1 | 0,1 | 0,1 | 0,1 | 0,1 | 0,1 | 0,1 | 0,1 | 0,1 | 0,1 | 0,1 | 0,1 | 0,1 | 0,1 | 0,1 | 0,1 | 0,1 | 0,1 | 0,1 | 0,1 | 0,1 | 0,1 | 0,1 | 0,1 | 0,1 | 0,1 | 0,1 | 0,1 | 0,1 | 0,1 | 0,1 | 0,1 | 0,1 | 0,1 | 0,1 | 0,1 | 0,1 | 0,0 | 0,0 | 0,0 | 0,1 | 0,1 | 0,1 | 0,1 | 0,1 | 0,1 | 0,1 | 0,1 | 0,1 | 0,1 | 0,1 | 0,1 | 0,1 | 0,1 | 0,1 | 0,1 | 0,1 | 0,1 | 0,1 | 0,1 | 0,1 | 0,1 | 0,1 | 0,1 | 0,1 | 0,1 | 0,1 | 0,1 | 0,1 | 0,1 | 0,1 | 0,1 | 0,1 | 0,1 | 0,1 | 0,1 | 0,1 | 0,1 | 0,1 | 0,1 | 0,1 | 0,1 | 0,0 | 0,0 | 0,0 | -1.0060869,1 | 0,1 | 0,1 | 0,1 | 0,1 | 0,1 | 0,1 | 0,1 | 0,1 | 0,1"
       method="auto"
       radius="0"
       chamfer_steps="1"
       helper_size="0"
       flexible="false"
       use_knot_distance="false"
       ignore_radius_0="false"
       only_selected="false"
       hide_knots="false" />
    <inkscape:path-effect
       effect="fillet_chamfer"
       id="path-effect4365"
       is_visible="true"
       fillet_chamfer_values="0,0 | 0,1 | 0,1 | 0,1 | 0,1 | 0,1 | 0,1 | 0,1 | 0,1 | 0,1 | 0,1 | 0,1 | 0,1 | 0,1 | 0,1 | 0,1 | 0,1 | 0,1 | 0,1 | 0,1 | 0,1 | 0,1 | 0,1 | 0,1 | 0,1 | 0,1 | 0,1 | 0,1 | 0,1 | 0,1 | 0,1 | 0,1 | 0,1 | 0,1 | 0,1 | 0,1 | 0,1 | 0,1 | 0,1 | 0,1 | 0,1 | 0,1 | 0,1 | 0,1 | 0,1 | 0,1 | 0,1 | 0,1 | 0,1 | 0,1 | 0,1 | 0,1 | 0,1 | 0,1 | 0,1 | 0,1 | 0,1 | 0,1 | 0,1 | 0,1 | 0,1 | 0,1 | 0,1 | 0,0 | 0,1 | 0,1 | 0,1 | 0,1 | 0,1 | 0,1 | 0,1 | 0,1 | 0,1 | 0,1 | 0,1 | 0,1 | 0,1 | 0,1 | 0,1 | 0,1 | 0,1 | 0,1 | 0,1 | 0,1 | 0,1 | 0,1 | 0,1 | 0,1 | 0,1 | 0,1 | 0,1 | 0,1 | 0,1 | 0,1 | 0,1 | 0,1 | 0,1 | 0,1 | 0,1 | 0,1 | 0,1 | 0,1 | 0,1 | 0,1 | 0,1 | 0,1 | 0,1 | 0,1 | 0,1 | 0,1 | 0,1 | 0,1 | 0,1 | 0,1 | 0,1 | 0,1 | 0,1 | 0,1 | 0,1 | 0,1 | 0,1 | 0,1 | 0,1 | 0,1 | 0,1 | 0,1 | 0,1 | 0,1 | 0,1 | 0,1 | 0,1 | 0,1 | 0,1 | 0,1 | 0,1 | 0,1 | 0,1 | 0,1 | 0,1 | 0,1 | 0,1 | 0,1 | 0,1 | 0,1 | 0,1 | 0,1 | 0,1 | 0,1 | 0,1 | 0,1 | 0,1 | 0,1 | 0,1 | 0,1 | 0,1 | 0,1 | 0,1 | 0,1 | 0,1 | 0,1 | 0,1 | 0,1 | 0,1 | 0,1 | 0,1 | 0,1 | 0,0 | 0,0 | 0,0 | 0,1 | 0,1 | 0,1 | 0,1 | 0,1 | 0,1 | 0,1 | 0,1 | 0,1 | 0,1"
       method="auto"
       radius="0"
       chamfer_steps="1"
       helper_size="0"
       flexible="false"
       use_knot_distance="false"
       ignore_radius_0="false"
       only_selected="false"
       hide_knots="false" />
    <inkscape:path-effect
       effect="fillet_chamfer"
       id="path-effect4279"
       is_visible="true"
       fillet_chamfer_values="0,0 | 0,1 | 0,1 | 0,1 | 0,1 | 0,1 | 0,1 | 0,1 | 0,1 | 0,1 | 0,1 | 0,1 | 0,1 | 0,0 | 0,1 | 0,1 | 0,1 | 0,1 | 0,1 | 0,1 | 0,1 | 0,1 | 0,1 | 0,1 | 0,1 | 0,1 | 0,1 | 0,1 | 0,1 | 0,1 | 0,1 | 0,1 | 0,1 | 0,1 | 0,1 | 0,1 | 0,1 | 0,1 | 0,1 | 0,1 | 0,1 | 0,1 | 0,1 | 0,1 | 0,1 | 0,1 | 0,1 | 0,1 | 0,1 | 0,1 | 0,1 | 0,1 | 0,1 | 0,1 | 0,1 | 0,1 | 0,1 | 0,1 | 0,1 | 0,1 | 0,1 | 0,1 | 0,1 | 0,1 | 0,0 | 0,1 | 0,1 | 0,1 | 0,1 | 0,1 | 0,1 | 0,1 | 0,1 | 0,1 | 0,1 | 0,1 | 0,1 | 0,1 | 0,1 | 0,1 | 0,1 | 0,1 | 0,1 | 0,1 | 0,1 | 0,1 | 0,1 | 0,1 | 0,1 | 0,1 | 0,1 | 0,1 | 0,1 | 0,1 | 0,1 | 0,1 | 0,1 | 0,1 | 0,1 | 0,1 | 0,1 | 0,1 | 0,1 | 0,1 | 0,1 | 0,1 | 0,1 | 0,1 | 0,1 | 0,1 | 0,1 | 0,1 | 0,1 | 0,1 | 0,1 | 0,1 | 0,1 | 0,0 | 0,0 | 0,0 | 0,1 | 0,1 | 0,1 | 0,1 | 0,1 | 0,1 | 0,1 | 0,1 | 0,1 | 0,1 | 0,1 | 0,1 | 0,1 | 0,1 | 0,1 | 0,1 | 0,1 | 0,1 | 0,1 | 0,1 | 0,1 | 0,1 | 0,1 | 0,1 | 0,1 | 0,1 | 0,1 | 0,1 | 0,1 | 0,1 | 0,1 | 0,1 | 0,1 | 0,1 | 0,1 | 0,1 | 0,1 | 0,1 | 0,1 | 0,1 | 0,1 | 0,1 | 0,0 | 0,0 | 0,0 | -0.799129,1 | 0,1 | 0,1 | 0,1 | 0,1 | 0,1 | 0,1 | 0,1 | 0,1 | 0,1"
       method="auto"
       radius="0"
       chamfer_steps="1"
       helper_size="0"
       flexible="false"
       use_knot_distance="false"
       ignore_radius_0="false"
       only_selected="false"
       hide_knots="false" />
  </defs>
  <sodipodi:namedview
     id="base"
     pagecolor="#ffffff"
     bordercolor="#666666"
     borderopacity="1.0"
     inkscape:pageopacity="0.0"
     inkscape:pageshadow="2"
     inkscape:zoom="1.979899"
     inkscape:cx="249.44873"
     inkscape:cy="152.70066"
     inkscape:document-units="mm"
     inkscape:current-layer="layer1"
     inkscape:document-rotation="0"
     showgrid="false"
     inkscape:window-width="1920"
     inkscape:window-height="1017"
     inkscape:window-x="-8"
     inkscape:window-y="-8"
     inkscape:window-maximized="1" />
  <metadata
     id="metadata4886">
    <rdf:RDF>
      <cc:Work
         rdf:about="">
        <dc:format>image/svg+xml</dc:format>
        <dc:type
           rdf:resource="http://purl.org/dc/dcmitype/StillImage" />
        <dc:title />
      </cc:Work>
    </rdf:RDF>
  </metadata>
  <g
     inkscape:label="Layer 1"
     inkscape:groupmode="layer"
     id="layer1">
    <rect
       y="227.04564"
       x="0.0099999998"
       height="69.944366"
       width="69.944366"
       id="rect6505"
       style="fill:none;fill-opacity:1;fill-rule:evenodd;stroke:#000000;stroke-width:0.02;stroke-miterlimit:4;stroke-dasharray:none;stroke-opacity:1" />
    <path
       style="fill:#ffffff;fill-opacity:1;fill-rule:evenodd;stroke:#000000;stroke-width:0.02;stroke-linejoin:round;stroke-miterlimit:4;stroke-dasharray:none;stroke-opacity:1"
       d="m 3.1246229,236.32225 c -0.552237,3e-5 -0.999905,0.4477 -0.999939,0.99993 v 0.75241 1.94252 c 3.3e-5,0.55224 0.447701,0.99991 0.999939,0.99994 h 0.676961 2.033468 3.7103668 3.6431893 1.643311 c 1.104473,7e-5 1.99981,0.8954 1.999878,1.99988 v 0.64234 0.0186 c -0.005,0.7052 0.0041,-0.018 -1.78e-4,0.68333 -0.0062,1.0217 -1.357055,1.705 -1.64365,1.70981 l -2.043803,0.005 -3.5956463,0.0357 -0.483175,0.005 -3.2674998,0.0315 -0.702283,0.007 c -2.639634,0.003 -2.987392,0.24639 -2.970878,2.99981 v 0.11266 0.076 c -0.02727,0.82181 0.616852,1.51013 1.438671,1.53737 h 2.268079 2.020032 5.3495441 0.04392 1.706873 c 1.104475,6e-5 1.999811,0.8954 1.999878,1.99988 v 0.0217 1.02216 c -3.4e-5,0.55224 -0.447702,0.9999 -0.999939,0.99994 H 15.67734 13.312627 11.614022 10.672994 c -0.552236,3e-5 -0.9999043,0.4477 -0.9999393,0.99993 v 0.61754 1.96525 c 3.3e-5,0.55224 0.4477023,0.99991 0.9999393,0.99994 h 3.897437 4.897375 4.897376 4.897892 4.897377 2.367814 c 1.167651,2e-5 2.177558,0.81354 2.426208,1.95441 l 0.103352,0.4718 v 3.77445 3.77392 0.77409 c 1.93e-4,1.65712 -1.343213,3.00054 -3.000333,3.00035 h -0.774113 -0.774112 c -1.656713,1.1e-4 -2.999716,1.34311 -2.999817,2.99982 v 0.63924 0.61753 c -3.4e-5,0.55224 -0.447701,0.99992 -0.99994,0.99994 H 27.735002 27.05029 c -0.552239,-2e-5 -0.999906,-0.4477 -0.999941,-0.99994 v -0.61753 -2.02158 c 0.0065,-1.65037 -1.326206,-2.99344 -2.976561,-2.99982 -0.552238,-3e-5 -0.999906,-0.4477 -0.999939,-0.99994 v -0.38087 -2.76365 -2.76312 -0.76326 c -6.7e-5,-1.10447 -0.895403,-1.99981 -1.999878,-1.99988 H 18.872499 15.671144 11.155657 6.6401699 4.6211719 3.1246229 c -0.552238,4e-5 -0.999906,0.4477 -0.999939,0.99994 v 0.61754 1.17512 c 6.6e-5,1.10467 0.895718,2.00008 2.000394,1.99987 h 1.706356 3.7067508 3.7067503 1.706873 c 1.104475,7e-5 1.999811,0.8954 1.999878,1.99987 v 0.3519 0.5266 c -6.7e-5,1.10448 -0.895403,1.9998 -1.999878,1.99988 H 13.244935 9.5381847 5.8314339 3.1246229 c -0.552238,3e-5 -0.999906,0.4477 -0.999939,0.99994 v 1.99988 0.61751 c 3.3e-5,0.55224 0.447701,0.99991 0.999939,0.99994 h 2.706811 3.7067508 3.7067503 1.706873 c 1.104475,8e-5 1.999811,0.8954 1.999878,1.99988 v 0.0217 0.0222 c -6.7e-5,1.10448 -0.895403,1.9998 -1.999878,1.99988 h -1.639176 -1.651579 -0.988054 c -0.506865,-0.0453 -0.9545393,0.32874 -0.9999393,0.83561 v 0.78184 2.50529 c 3.3e-5,0.55224 0.4477023,0.99991 0.9999393,0.99994 h 4.45916 5.459098 5.459097 2.241725 1.181323 c 0.461563,0 0.747694,0.005 1.209016,0.0206 0.538609,0.006 0.804286,0.55454 0.814827,0.94773 0.01807,0.21754 0.01169,0.19622 0.01169,0.41429 -1.22e-4,0.27633 0.223912,0.50038 0.500229,0.50025 h 0.582393 0.803053 0.850593 0.903303 3.639572 3.639055 0.639755 c 1.656712,-1.1e-4 2.999716,-1.34311 2.999816,-2.99982 v -0.63977 -0.63923 c 1.01e-4,-1.65671 1.343105,-2.99971 2.999817,-2.99982 h 0.684197 3.684529 3.684529 3.684014 3.684529 0.684194 c 1.656919,-10e-5 3.000012,-1.34339 2.999819,-3.00032 v -0.50438 -0.50434 c 1.78e-4,-1.6569 -1.342908,-3.00025 -2.999819,-3.00035 h -0.68419 -3.684529 -3.684014 -3.684529 -3.684529 -0.684197 c -1.656712,-1.1e-4 -2.999716,-1.34311 -2.999817,-2.99982 v -1.58263 -4.58319 -4.58266 -1.58285 c -0.0013,-1.65587 -1.343943,-2.99765 -2.999816,-2.99775 h -0.684713 -3.684013 -3.68453 -3.684013 -0.685231 c -1.65671,-1e-4 -2.999716,-1.34311 -2.999817,-2.99982 v -0.62683 -4.18838 c 0,-0.55212 -0.44782,-0.99966 -0.999937,-0.99994 -0.583311,-2.6e-4 -1.167826,-0.001 -1.751832,-0.001 -0.371409,0 -0.742331,1.6e-4 -1.112594,0.001 -0.173424,0 -0.40195,8.1e-4 -0.63311,0.002 -0.555639,0.003 -1.006066,-0.44435 -1.006066,-1 v -0.39744 l -5.29e-4,-2.79671 v -2.79734 -0.79686 c -6.8e-5,-1.10447 -0.895405,-1.99981 -1.999878,-1.99987 H 18.938128 15.735739 11.15049 6.6375869 Z"
       id="path6478"
       inkscape:connector-curvature="0"
       sodipodi:nodetypes="cccccccccccccccccccccccccccccccccccccccccccccccccccccccccccccccccccccccccccccccccccccccccccccccccccccccccccccccccccccccccccccccccccccccccccccccccccccccccccccccccscscccccccccccc"
       inkscape:path-effect="#path-effect4832"
       inkscape:original-d="m 3.1246229,236.32225 c -0.552237,3e-5 -0.999905,0.4477 -0.999939,0.99993 v 0.75241 1.94252 c 3.3e-5,0.55224 0.447701,0.99991 0.999939,0.99994 h 0.676961 2.033468 3.7103668 3.6431893 1.643311 c 1.104473,7e-5 1.99981,0.8954 1.999878,1.99988 v 0.64234 0.0186 c -0.005,0.7052 0.0041,-0.018 -1.78e-4,0.68333 -0.0062,1.0217 -1.357055,1.705 -1.64365,1.70981 l -2.043803,0.005 -3.5956463,0.0357 -0.483175,0.005 -3.2674998,0.0315 -0.702283,0.007 c -2.639634,0.003 -2.987392,0.24639 -2.970878,2.99981 v 0.11266 0.076 c -0.02727,0.82181 0.616852,1.51013 1.438671,1.53737 h 2.268079 2.020032 5.3495441 0.04392 1.706873 c 1.104475,6e-5 1.999811,0.8954 1.999878,1.99988 v 0.0217 1.02216 c -3.4e-5,0.55224 -0.447702,0.9999 -0.999939,0.99994 H 15.67734 13.312627 11.614022 10.672994 c -0.552236,3e-5 -0.9999043,0.4477 -0.9999393,0.99993 v 0.61754 1.96525 c 3.3e-5,0.55224 0.4477023,0.99991 0.9999393,0.99994 h 3.897437 4.897375 4.897376 4.897892 4.897377 2.367814 c 1.167651,2e-5 2.177558,0.81354 2.426208,1.95441 l 0.103352,0.4718 v 3.77445 3.77392 0.77409 c 1.93e-4,1.65712 -1.343213,3.00054 -3.000333,3.00035 h -0.774113 -0.774112 c -1.656713,1.1e-4 -2.999716,1.34311 -2.999817,2.99982 v 0.63924 0.61753 c -3.4e-5,0.55224 -0.447701,0.99992 -0.99994,0.99994 H 27.735002 27.05029 c -0.552239,-2e-5 -0.999906,-0.4477 -0.999941,-0.99994 v -0.61753 -2.02158 c 0.0065,-1.65037 -1.326206,-2.99344 -2.976561,-2.99982 -0.552238,-3e-5 -0.999906,-0.4477 -0.999939,-0.99994 v -0.38087 -2.76365 -2.76312 -0.76326 c -6.7e-5,-1.10447 -0.895403,-1.99981 -1.999878,-1.99988 H 18.872499 15.671144 11.155657 6.6401699 4.6211719 3.1246229 c -0.552238,4e-5 -0.999906,0.4477 -0.999939,0.99994 v 0.61754 1.17512 c 6.6e-5,1.10467 0.895718,2.00008 2.000394,1.99987 h 1.706356 3.7067508 3.7067503 1.706873 c 1.104475,7e-5 1.999811,0.8954 1.999878,1.99987 v 0.3519 0.5266 c -6.7e-5,1.10448 -0.895403,1.9998 -1.999878,1.99988 H 13.244935 9.5381847 5.8314339 3.1246229 c -0.552238,3e-5 -0.999906,0.4477 -0.999939,0.99994 v 1.99988 0.61751 c 3.3e-5,0.55224 0.447701,0.99991 0.999939,0.99994 h 2.706811 3.7067508 3.7067503 1.706873 c 1.104475,8e-5 1.999811,0.8954 1.999878,1.99988 v 0.0217 0.0222 c -6.7e-5,1.10448 -0.895403,1.9998 -1.999878,1.99988 h -1.639176 -1.651579 -0.988054 c -0.506865,-0.0453 -0.9545393,0.32874 -0.9999393,0.83561 v 0.78184 2.50529 c 3.3e-5,0.55224 0.4477023,0.99991 0.9999393,0.99994 h 4.45916 5.459098 5.459097 2.241725 1.181323 c 0.461563,0 0.747694,0.005 1.209016,0.0206 0.538609,0.006 0.804286,0.55454 0.814827,0.94773 0.01807,0.21754 0.01169,0.19622 0.01169,0.41429 -1.22e-4,0.27633 0.223912,0.50038 0.500229,0.50025 h 0.582393 0.803053 0.850593 0.903303 3.639572 3.639055 0.639755 c 1.656712,-1.1e-4 2.999716,-1.34311 2.999816,-2.99982 v -0.63977 -0.63923 c 1.01e-4,-1.65671 1.343105,-2.99971 2.999817,-2.99982 h 0.684197 3.684529 3.684529 3.684014 3.684529 0.684194 c 1.656919,-10e-5 3.000012,-1.34339 2.999819,-3.00032 v -0.50438 -0.50434 c 1.78e-4,-1.6569 -1.342908,-3.00025 -2.999819,-3.00035 h -0.68419 -3.684529 -3.684014 -3.684529 -3.684529 -0.684197 c -1.656712,-1.1e-4 -2.999716,-1.34311 -2.999817,-2.99982 v -1.58263 -4.58319 -4.58266 -1.58285 c -0.0013,-1.65587 -1.343943,-2.99765 -2.999816,-2.99775 h -0.684713 -3.684013 -3.68453 -3.684013 -0.685231 c -1.65671,-1e-4 -2.999716,-1.34311 -2.999817,-2.99982 v -0.62683 -4.18838 c 0,-0.55212 -0.44782,-0.99966 -0.999937,-0.99994 -0.583311,-2.6e-4 -1.167826,-0.001 -1.751832,-0.001 -0.371409,0 -0.742331,1.6e-4 -1.112594,0.001 -0.546247,0 -1.639176,0.008 -1.639176,0.008 v -1.40353 l -5.29e-4,-2.79671 v -2.79734 -0.79686 c -6.8e-5,-1.10447 -0.895405,-1.99981 -1.999878,-1.99987 H 18.938128 15.735739 11.15049 6.6375869 Z" />
  </g>
</svg>
