<?xml version="1.0" encoding="UTF-8" standalone="no"?>
<svg
   xmlns:osb="http://www.openswatchbook.org/uri/2009/osb"
   xmlns:dc="http://purl.org/dc/elements/1.1/"
   xmlns:cc="http://creativecommons.org/ns#"
   xmlns:rdf="http://www.w3.org/1999/02/22-rdf-syntax-ns#"
   xmlns:svg="http://www.w3.org/2000/svg"
   xmlns="http://www.w3.org/2000/svg"
   xmlns:sodipodi="http://sodipodi.sourceforge.net/DTD/sodipodi-0.dtd"
   xmlns:inkscape="http://www.inkscape.org/namespaces/inkscape"
   version="1.0"
   width="555.000000pt"
   height="419.000000pt"
   viewBox="0 0 555.000000 419.000000"
   preserveAspectRatio="xMidYMid meet"
   id="svg4468"
   inkscape:version="0.91 r13725"
   sodipodi:docname="RAST.svg">
  <defs
     id="defs4478">
    <linearGradient
       id="linearGradient6472"
       osb:paint="solid">
      <stop
         style="stop-color:#000000;stop-opacity:1;"
         offset="0"
         id="stop6474" />
    </linearGradient>
    <linearGradient
       id="linearGradient5024"
       osb:paint="solid">
      <stop
         style="stop-color:#000000;stop-opacity:1;"
         offset="0"
         id="stop5026" />
    </linearGradient>
  </defs>
  <sodipodi:namedview
     pagecolor="#ffffff"
     bordercolor="#666666"
     borderopacity="1"
     objecttolerance="10"
     gridtolerance="10"
     guidetolerance="10"
     inkscape:pageopacity="0"
     inkscape:pageshadow="2"
     inkscape:window-width="957"
     inkscape:window-height="780"
     id="namedview4476"
     showgrid="false"
     inkscape:zoom="1.6605405"
     inkscape:cx="77.945172"
     inkscape:cy="31.358856"
     inkscape:window-x="62"
     inkscape:window-y="192"
     inkscape:window-maximized="0"
     inkscape:current-layer="svg4468" />
  <metadata
     id="metadata4470">
Created by potrace 1.14, written by Peter Selinger 2001-2017
<rdf:RDF>
  <cc:Work
     rdf:about="">
    <dc:format>image/svg+xml</dc:format>
    <dc:type
       rdf:resource="http://purl.org/dc/dcmitype/StillImage" />
    <dc:title />
  </cc:Work>
</rdf:RDF>
</metadata>
  <path
     style="fill:#ffffff;fill-opacity:1;fill-rule:evenodd;stroke:#000000;stroke-width:0.11561734;stroke-miterlimit:4;stroke-dasharray:none;stroke-opacity:1"
     d="m 64.537697,391.21067 0,-3.43877 -19.89572,0 -19.89573,0 0,-2.94751 0,-2.94753 6.63192,0 6.63191,0 0,-3.68439 0,-3.6844 -13.50945,0 -13.50945,0 0,-2.94753 0,-2.94751 13.50945,0 13.50945,0 0,-7.12314 0,-7.12316 -13.50945,0 -13.50945,0 0,-2.94751 0,-2.94751 16.45696,0 16.45698,0 0,10.07067 0,10.07065 3.43875,0 3.43877,0 0,6.63193 0,6.6319 6.87754,0 6.87752,0 0,-6.6319 0,-6.63193 6.87755,0 6.87752,0 0,-13.75506 0,-13.75507 -26.77325,0 -26.77327,0 0,-2.94751 0,-2.94753 6.63192,0 6.63191,0 0,-3.68439 0,-3.68439 -13.50945,0 -13.50945,0 0,-2.93962 0,-2.93962 13.38664,-0.13072 13.38664,-0.13073 0.13622,-7.00033 0.13623,-7.00037 -13.52292,0 -13.52295,0 0,-3.19313 0,-3.19313 16.44701,0 16.44698,0 0.13276,10.19348 0.13276,10.19348 3.31594,0.14521 3.31597,0.1452 0,6.60947 0,6.60945 20.14134,0 20.14135,0 0,16.70259 0,16.70258 20.141373,0 20.14135,0 0,6.38628 0,6.38628 -20.14135,0 -20.141373,0 0,6.63193 0,6.6319 -13.2638,0 -13.26383,0 0,-3.43875 z"
     id="path6478"
     inkscape:connector-curvature="0" />
  <rect
     style="fill:none;fill-opacity:1;fill-rule:evenodd;stroke:#000000;stroke-width:0.10138365;stroke-miterlimit:4;stroke-dasharray:none;stroke-opacity:1"
     id="rect6505"
     width="127.45768"
     height="127.45767"
     x="7.1373062"
     y="284.40503" />
</svg>
